<svg width="51" height="47" viewBox="0 0 51 47" fill="none" xmlns="http://www.w3.org/2000/svg">
<path d="M5.868 42.14H2.22L1.548 44H0.396L3.42 35.684H4.68L7.692 44H6.54L5.868 42.14ZM5.556 41.252L4.044 37.028L2.532 41.252H5.556ZM8.60194 40.7C8.60194 40.02 8.73794 39.428 9.00994 38.924C9.28194 38.412 9.65794 38.016 10.1379 37.736C10.6259 37.456 11.1819 37.316 11.8059 37.316C12.6139 37.316 13.2779 37.512 13.7979 37.904C14.3259 38.296 14.6739 38.84 14.8419 39.536H13.6659C13.5539 39.136 13.3339 38.82 13.0059 38.588C12.6859 38.356 12.2859 38.24 11.8059 38.24C11.1819 38.24 10.6779 38.456 10.2939 38.888C9.90994 39.312 9.71794 39.916 9.71794 40.7C9.71794 41.492 9.90994 42.104 10.2939 42.536C10.6779 42.968 11.1819 43.184 11.8059 43.184C12.2859 43.184 12.6859 43.072 13.0059 42.848C13.3259 42.624 13.5459 42.304 13.6659 41.888H14.8419C14.6659 42.56 14.3139 43.1 13.7859 43.508C13.2579 43.908 12.5979 44.108 11.8059 44.108C11.1819 44.108 10.6259 43.968 10.1379 43.688C9.65794 43.408 9.28194 43.012 9.00994 42.5C8.73794 41.988 8.60194 41.388 8.60194 40.7ZM15.891 40.7C15.891 40.02 16.027 39.428 16.299 38.924C16.571 38.412 16.947 38.016 17.427 37.736C17.915 37.456 18.471 37.316 19.095 37.316C19.903 37.316 20.567 37.512 21.087 37.904C21.615 38.296 21.963 38.84 22.131 39.536H20.955C20.843 39.136 20.623 38.82 20.295 38.588C19.975 38.356 19.575 38.24 19.095 38.24C18.471 38.24 17.967 38.456 17.583 38.888C17.199 39.312 17.007 39.916 17.007 40.7C17.007 41.492 17.199 42.104 17.583 42.536C17.967 42.968 18.471 43.184 19.095 43.184C19.575 43.184 19.975 43.072 20.295 42.848C20.615 42.624 20.835 42.304 20.955 41.888H22.131C21.955 42.56 21.603 43.1 21.075 43.508C20.547 43.908 19.887 44.108 19.095 44.108C18.471 44.108 17.915 43.968 17.427 43.688C16.947 43.408 16.571 43.012 16.299 42.5C16.027 41.988 15.891 41.388 15.891 40.7ZM26.4561 44.108C25.8401 44.108 25.2801 43.968 24.7761 43.688C24.2801 43.408 23.8881 43.012 23.6001 42.5C23.3201 41.98 23.1801 41.38 23.1801 40.7C23.1801 40.028 23.3241 39.436 23.6121 38.924C23.9081 38.404 24.3081 38.008 24.8121 37.736C25.3161 37.456 25.8801 37.316 26.5041 37.316C27.1281 37.316 27.6921 37.456 28.1961 37.736C28.7001 38.008 29.0961 38.4 29.3841 38.912C29.6801 39.424 29.8281 40.02 29.8281 40.7C29.8281 41.38 29.6761 41.98 29.3721 42.5C29.0761 43.012 28.6721 43.408 28.1601 43.688C27.6481 43.968 27.0801 44.108 26.4561 44.108ZM26.4561 43.148C26.8481 43.148 27.2161 43.056 27.5601 42.872C27.9041 42.688 28.1801 42.412 28.3881 42.044C28.6041 41.676 28.7121 41.228 28.7121 40.7C28.7121 40.172 28.6081 39.724 28.4001 39.356C28.1921 38.988 27.9201 38.716 27.5841 38.54C27.2481 38.356 26.8841 38.264 26.4921 38.264C26.0921 38.264 25.7241 38.356 25.3881 38.54C25.0601 38.716 24.7961 38.988 24.5961 39.356C24.3961 39.724 24.2961 40.172 24.2961 40.7C24.2961 41.236 24.3921 41.688 24.5841 42.056C24.7841 42.424 25.0481 42.7 25.3761 42.884C25.7041 43.06 26.0641 43.148 26.4561 43.148ZM37.0958 37.424V44H36.0038V43.028C35.7958 43.364 35.5038 43.628 35.1278 43.82C34.7598 44.004 34.3518 44.096 33.9038 44.096C33.3918 44.096 32.9318 43.992 32.5238 43.784C32.1158 43.568 31.7918 43.248 31.5518 42.824C31.3198 42.4 31.2038 41.884 31.2038 41.276V37.424H32.2838V41.132C32.2838 41.78 32.4478 42.28 32.7758 42.632C33.1038 42.976 33.5518 43.148 34.1198 43.148C34.7038 43.148 35.1638 42.968 35.4998 42.608C35.8358 42.248 36.0038 41.724 36.0038 41.036V37.424H37.0958ZM42.1436 37.304C42.9436 37.304 43.5916 37.548 44.0876 38.036C44.5836 38.516 44.8316 39.212 44.8316 40.124V44H43.7516V40.28C43.7516 39.624 43.5876 39.124 43.2596 38.78C42.9316 38.428 42.4836 38.252 41.9156 38.252C41.3396 38.252 40.8796 38.432 40.5356 38.792C40.1996 39.152 40.0316 39.676 40.0316 40.364V44H38.9396V37.424H40.0316V38.36C40.2476 38.024 40.5396 37.764 40.9076 37.58C41.2836 37.396 41.6956 37.304 42.1436 37.304ZM47.9474 38.324V42.2C47.9474 42.52 48.0154 42.748 48.1514 42.884C48.2874 43.012 48.5234 43.076 48.8594 43.076H49.6634V44H48.6794C48.0714 44 47.6154 43.86 47.3114 43.58C47.0074 43.3 46.8554 42.84 46.8554 42.2V38.324H46.0034V37.424H46.8554V35.768H47.9474V37.424H49.6634V38.324H47.9474Z" fill="#A8A8A8"/>
<mask id="path-2-inside-1_33_274" fill="white">
<path d="M17.5562 22.0875C18.6541 21.248 19.8812 20.5858 21.2375 20.101C22.5937 19.617 24.0146 19.375 25.5 19.375C26.9854 19.375 28.4062 19.617 29.7625 20.101C31.1187 20.5858 32.3458 21.248 33.4437 22.0875C34.1972 21.2049 34.7841 20.2039 35.2043 19.0844C35.6236 17.965 35.8333 16.7702 35.8333 15.5C35.8333 12.6368 34.8271 10.1986 32.8147 8.18533C30.8014 6.17292 28.3632 5.16671 25.5 5.16671C22.6368 5.16671 20.199 6.17292 18.1866 8.18533C16.1733 10.1986 15.1666 12.6368 15.1666 15.5C15.1666 16.7702 15.3768 17.965 15.797 19.0844C16.2163 20.2039 16.8028 21.2049 17.5562 22.0875ZM25.5 16.7917C24.2298 16.7917 23.1586 16.356 22.2863 15.4845C21.4149 14.6122 20.9791 13.541 20.9791 12.2709C20.9791 11.0007 21.4149 9.92951 22.2863 9.05721C23.1586 8.18576 24.2298 7.75004 25.5 7.75004C26.7701 7.75004 27.8413 8.18576 28.7136 9.05721C29.5851 9.92951 30.0208 11.0007 30.0208 12.2709C30.0208 13.541 29.5851 14.6122 28.7136 15.4845C27.8413 16.356 26.7701 16.7917 25.5 16.7917ZM25.5 28.4167C23.7132 28.4167 22.034 28.0774 20.4625 27.3989C18.891 26.7212 17.5239 25.8011 16.3614 24.6386C15.1989 23.4761 14.2788 22.1091 13.6011 20.5375C12.9226 18.966 12.5833 17.2868 12.5833 15.5C12.5833 13.7132 12.9226 12.0341 13.6011 10.4625C14.2788 8.89101 15.1989 7.524 16.3614 6.3615C17.5239 5.199 18.891 4.27847 20.4625 3.59992C22.034 2.92222 23.7132 2.58337 25.5 2.58337C27.2868 2.58337 28.966 2.92222 30.5375 3.59992C32.109 4.27847 33.476 5.199 34.6385 6.3615C35.801 7.524 36.7211 8.89101 37.3988 10.4625C38.0774 12.0341 38.4166 13.7132 38.4166 15.5C38.4166 17.2868 38.0774 18.966 37.3988 20.5375C36.7211 22.1091 35.801 23.4761 34.6385 24.6386C33.476 25.8011 32.109 26.7212 30.5375 27.3989C28.966 28.0774 27.2868 28.4167 25.5 28.4167ZM25.5 25.8334C26.641 25.8334 27.7173 25.6668 28.7291 25.3335C29.741 24.9994 30.6666 24.5202 31.5062 23.8959C30.6666 23.2716 29.741 22.7924 28.7291 22.4582C27.7173 22.125 26.641 21.9584 25.5 21.9584C24.359 21.9584 23.2826 22.125 22.2708 22.4582C21.259 22.7924 20.3333 23.2716 19.4937 23.8959C20.3333 24.5202 21.259 24.9994 22.2708 25.3335C23.2826 25.6668 24.359 25.8334 25.5 25.8334ZM25.5 14.2084C26.0597 14.2084 26.5225 14.0254 26.8885 13.6594C27.2545 13.2934 27.4375 12.8306 27.4375 12.2709C27.4375 11.7112 27.2545 11.2483 26.8885 10.8823C26.5225 10.5164 26.0597 10.3334 25.5 10.3334C24.9403 10.3334 24.4774 10.5164 24.1114 10.8823C23.7455 11.2483 23.5625 11.7112 23.5625 12.2709C23.5625 12.8306 23.7455 13.2934 24.1114 13.6594C24.4774 14.0254 24.9403 14.2084 25.5 14.2084Z"/>
</mask>
<path d="M17.5562 22.0875C18.6541 21.248 19.8812 20.5858 21.2375 20.101C22.5937 19.617 24.0146 19.375 25.5 19.375C26.9854 19.375 28.4062 19.617 29.7625 20.101C31.1187 20.5858 32.3458 21.248 33.4437 22.0875C34.1972 21.2049 34.7841 20.2039 35.2043 19.0844C35.6236 17.965 35.8333 16.7702 35.8333 15.5C35.8333 12.6368 34.8271 10.1986 32.8147 8.18533C30.8014 6.17292 28.3632 5.16671 25.5 5.16671C22.6368 5.16671 20.199 6.17292 18.1866 8.18533C16.1733 10.1986 15.1666 12.6368 15.1666 15.5C15.1666 16.7702 15.3768 17.965 15.797 19.0844C16.2163 20.2039 16.8028 21.2049 17.5562 22.0875ZM25.5 16.7917C24.2298 16.7917 23.1586 16.356 22.2863 15.4845C21.4149 14.6122 20.9791 13.541 20.9791 12.2709C20.9791 11.0007 21.4149 9.92951 22.2863 9.05721C23.1586 8.18576 24.2298 7.75004 25.5 7.75004C26.7701 7.75004 27.8413 8.18576 28.7136 9.05721C29.5851 9.92951 30.0208 11.0007 30.0208 12.2709C30.0208 13.541 29.5851 14.6122 28.7136 15.4845C27.8413 16.356 26.7701 16.7917 25.5 16.7917ZM25.5 28.4167C23.7132 28.4167 22.034 28.0774 20.4625 27.3989C18.891 26.7212 17.5239 25.8011 16.3614 24.6386C15.1989 23.4761 14.2788 22.1091 13.6011 20.5375C12.9226 18.966 12.5833 17.2868 12.5833 15.5C12.5833 13.7132 12.9226 12.0341 13.6011 10.4625C14.2788 8.89101 15.1989 7.524 16.3614 6.3615C17.5239 5.199 18.891 4.27847 20.4625 3.59992C22.034 2.92222 23.7132 2.58337 25.5 2.58337C27.2868 2.58337 28.966 2.92222 30.5375 3.59992C32.109 4.27847 33.476 5.199 34.6385 6.3615C35.801 7.524 36.7211 8.89101 37.3988 10.4625C38.0774 12.0341 38.4166 13.7132 38.4166 15.5C38.4166 17.2868 38.0774 18.966 37.3988 20.5375C36.7211 22.1091 35.801 23.4761 34.6385 24.6386C33.476 25.8011 32.109 26.7212 30.5375 27.3989C28.966 28.0774 27.2868 28.4167 25.5 28.4167ZM25.5 25.8334C26.641 25.8334 27.7173 25.6668 28.7291 25.3335C29.741 24.9994 30.6666 24.5202 31.5062 23.8959C30.6666 23.2716 29.741 22.7924 28.7291 22.4582C27.7173 22.125 26.641 21.9584 25.5 21.9584C24.359 21.9584 23.2826 22.125 22.2708 22.4582C21.259 22.7924 20.3333 23.2716 19.4937 23.8959C20.3333 24.5202 21.259 24.9994 22.2708 25.3335C23.2826 25.6668 24.359 25.8334 25.5 25.8334ZM25.5 14.2084C26.0597 14.2084 26.5225 14.0254 26.8885 13.6594C27.2545 13.2934 27.4375 12.8306 27.4375 12.2709C27.4375 11.7112 27.2545 11.2483 26.8885 10.8823C26.5225 10.5164 26.0597 10.3334 25.5 10.3334C24.9403 10.3334 24.4774 10.5164 24.1114 10.8823C23.7455 11.2483 23.5625 11.7112 23.5625 12.2709C23.5625 12.8306 23.7455 13.2934 24.1114 13.6594C24.4774 14.0254 24.9403 14.2084 25.5 14.2084Z" stroke="#A8A8A8" stroke-width="2" mask="url(#path-2-inside-1_33_274)"/>
</svg>
