<svg width="158" height="198" viewBox="0 0 158 198" fill="none" xmlns="http://www.w3.org/2000/svg">
<g filter="url(#filter0_d_205_72)">
<rect x="4" y="4" width="150" height="190" rx="10" fill="white"/>
<rect x="4.5" y="4.5" width="149" height="189" rx="9.5" stroke="#A8A8A8"/>
</g>
<path d="M111.946 58.8036L103.196 50.0536C102.623 49.4846 101.859 49.1474 101.052 49.1065C100.245 49.0656 99.4513 49.324 98.823 49.8321C98.1946 50.3402 97.7759 51.0623 97.6469 51.86C97.518 52.6577 97.6879 53.475 98.1242 54.1551L84.1953 64.6168L73.9879 66.6567C73.3524 66.7846 72.7686 67.0965 72.309 67.5536L49.5234 90.3364C48.8124 91.0473 48.2484 91.8914 47.8636 92.8203C47.4788 93.7493 47.2807 94.7449 47.2807 95.7504C47.2807 96.7559 47.4788 97.7516 47.8636 98.6805C48.2484 99.6095 48.8124 100.454 49.5234 101.164L60.8356 112.477C61.5465 113.188 62.3906 113.752 63.3195 114.136C64.2485 114.521 65.2441 114.719 66.2496 114.719C67.2551 114.719 68.2508 114.521 69.1797 114.136C70.1087 113.752 70.9527 113.188 71.6637 112.477L94.4465 89.6965C94.9036 89.2369 95.2155 88.6531 95.3434 88.0176L97.3832 77.8047L107.837 63.8594C108.517 64.2957 109.334 64.4657 110.132 64.3367C110.93 64.2078 111.652 63.789 112.16 63.1607C112.668 62.5323 112.926 61.7386 112.885 60.9316C112.844 60.1245 112.507 59.361 111.938 58.7872L111.946 58.8036ZM74.625 100.227L61.7734 87.375L70.25 78.8985L83.1016 91.75L74.625 100.227ZM66.2496 108.156C66.1059 108.156 65.9636 108.128 65.8309 108.073C65.6981 108.018 65.5774 107.938 65.4758 107.836L54.1637 96.5243C54.062 96.4227 53.9813 96.3021 53.9263 96.1693C53.8712 96.0365 53.8429 95.8942 53.8429 95.7504C53.8429 95.6067 53.8712 95.4644 53.9263 95.3316C53.9813 95.1988 54.062 95.0782 54.1637 94.9766L57.125 92.0235L69.9766 104.875L67.0234 107.836C66.9218 107.938 66.8011 108.018 66.6684 108.073C66.5356 108.128 66.3933 108.156 66.2496 108.156ZM91.6793 74.4688C91.3849 74.861 91.1821 75.3141 91.0859 75.795L89.1172 85.7563L87.75 87.1016L74.8984 74.25L76.2656 72.8829L86.227 70.8922C86.7078 70.796 87.161 70.5933 87.5531 70.2989L102.775 58.8801L103.128 59.2329L91.6793 74.4688Z" fill="#86C8BC"/>
<path d="M63.74 158.8C64.5533 158.973 65.2067 159.38 65.7 160.02C66.1933 160.647 66.44 161.367 66.44 162.18C66.44 163.353 66.0267 164.287 65.2 164.98C64.3867 165.66 63.2467 166 61.78 166H55.24V151.96H61.56C62.9867 151.96 64.1 152.287 64.9 152.94C65.7133 153.593 66.12 154.48 66.12 155.6C66.12 156.427 65.9 157.113 65.46 157.66C65.0333 158.207 64.46 158.587 63.74 158.8ZM58.66 157.64H60.9C61.46 157.64 61.8867 157.52 62.18 157.28C62.4867 157.027 62.64 156.66 62.64 156.18C62.64 155.7 62.4867 155.333 62.18 155.08C61.8867 154.827 61.46 154.7 60.9 154.7H58.66V157.64ZM61.18 163.24C61.7533 163.24 62.1933 163.113 62.5 162.86C62.82 162.593 62.98 162.213 62.98 161.72C62.98 161.227 62.8133 160.84 62.48 160.56C62.16 160.28 61.7133 160.14 61.14 160.14H58.66V163.24H61.18ZM73.5036 166.16C72.4103 166.16 71.4236 165.927 70.5436 165.46C69.6769 164.993 68.9903 164.327 68.4836 163.46C67.9903 162.593 67.7436 161.58 67.7436 160.42C67.7436 159.273 67.9969 158.267 68.5036 157.4C69.0103 156.52 69.7036 155.847 70.5836 155.38C71.4636 154.913 72.4503 154.68 73.5436 154.68C74.6369 154.68 75.6236 154.913 76.5036 155.38C77.3836 155.847 78.0769 156.52 78.5836 157.4C79.0903 158.267 79.3436 159.273 79.3436 160.42C79.3436 161.567 79.0836 162.58 78.5636 163.46C78.0569 164.327 77.3569 164.993 76.4636 165.46C75.5836 165.927 74.5969 166.16 73.5036 166.16ZM73.5036 163.2C74.1569 163.2 74.7103 162.96 75.1636 162.48C75.6303 162 75.8636 161.313 75.8636 160.42C75.8636 159.527 75.6369 158.84 75.1836 158.36C74.7436 157.88 74.1969 157.64 73.5436 157.64C72.8769 157.64 72.3236 157.88 71.8836 158.36C71.4436 158.827 71.2236 159.513 71.2236 160.42C71.2236 161.313 71.4369 162 71.8636 162.48C72.3036 162.96 72.8503 163.2 73.5036 163.2ZM87.378 163.1V166H85.638C84.398 166 83.4313 165.7 82.738 165.1C82.0446 164.487 81.698 163.493 81.698 162.12V157.68H80.338V154.84H81.698V152.12H85.118V154.84H87.358V157.68H85.118V162.16C85.118 162.493 85.198 162.733 85.358 162.88C85.518 163.027 85.7846 163.1 86.158 163.1H87.378ZM94.363 166.16C93.2696 166.16 92.283 165.927 91.403 165.46C90.5363 164.993 89.8496 164.327 89.343 163.46C88.8496 162.593 88.603 161.58 88.603 160.42C88.603 159.273 88.8563 158.267 89.363 157.4C89.8696 156.52 90.563 155.847 91.443 155.38C92.323 154.913 93.3096 154.68 94.403 154.68C95.4963 154.68 96.483 154.913 97.363 155.38C98.243 155.847 98.9363 156.52 99.443 157.4C99.9496 158.267 100.203 159.273 100.203 160.42C100.203 161.567 99.943 162.58 99.423 163.46C98.9163 164.327 98.2163 164.993 97.323 165.46C96.443 165.927 95.4563 166.16 94.363 166.16ZM94.363 163.2C95.0163 163.2 95.5696 162.96 96.023 162.48C96.4896 162 96.723 161.313 96.723 160.42C96.723 159.527 96.4963 158.84 96.043 158.36C95.603 157.88 95.0563 157.64 94.403 157.64C93.7363 157.64 93.183 157.88 92.743 158.36C92.303 158.827 92.083 159.513 92.083 160.42C92.083 161.313 92.2963 162 92.723 162.48C93.163 162.96 93.7096 163.2 94.363 163.2ZM105.437 151.2V166H102.017V151.2H105.437Z" fill="#252525"/>
<defs>
<filter id="filter0_d_205_72" x="0" y="0" width="158" height="198" filterUnits="userSpaceOnUse" color-interpolation-filters="sRGB">
<feFlood flood-opacity="0" result="BackgroundImageFix"/>
<feColorMatrix in="SourceAlpha" type="matrix" values="0 0 0 0 0 0 0 0 0 0 0 0 0 0 0 0 0 0 127 0" result="hardAlpha"/>
<feOffset/>
<feGaussianBlur stdDeviation="2"/>
<feComposite in2="hardAlpha" operator="out"/>
<feColorMatrix type="matrix" values="0 0 0 0 0 0 0 0 0 0 0 0 0 0 0 0 0 0 0.25 0"/>
<feBlend mode="normal" in2="BackgroundImageFix" result="effect1_dropShadow_205_72"/>
<feBlend mode="normal" in="SourceGraphic" in2="effect1_dropShadow_205_72" result="shape"/>
</filter>
</defs>
</svg>
