<svg width="152" height="52" viewBox="0 0 152 52" fill="none" xmlns="http://www.w3.org/2000/svg">
<g filter="url(#filter0_d_3_245)">
<rect x="4" y="4" width="144" height="44" rx="10" fill="white"/>
<rect x="4.5" y="4.5" width="143" height="43" rx="9.5" stroke="#A8A8A8"/>
</g>
<path d="M55.363 27.128C55.363 26.3653 55.528 25.687 55.858 25.093C56.188 24.4917 56.6463 24.026 57.233 23.696C57.827 23.3587 58.498 23.19 59.246 23.19C60.1627 23.19 60.9473 23.432 61.6 23.916C62.2527 24.4 62.689 25.06 62.909 25.896H60.841C60.687 25.5733 60.467 25.3277 60.181 25.159C59.9023 24.9903 59.5833 24.906 59.224 24.906C58.6447 24.906 58.1753 25.1077 57.816 25.511C57.4567 25.9143 57.277 26.4533 57.277 27.128C57.277 27.8027 57.4567 28.3417 57.816 28.745C58.1753 29.1483 58.6447 29.35 59.224 29.35C59.5833 29.35 59.9023 29.2657 60.181 29.097C60.467 28.9283 60.687 28.6827 60.841 28.36H62.909C62.689 29.196 62.2527 29.856 61.6 30.34C60.9473 30.8167 60.1627 31.055 59.246 31.055C58.498 31.055 57.827 30.89 57.233 30.56C56.6463 30.2227 56.188 29.757 55.858 29.163C55.528 28.569 55.363 27.8907 55.363 27.128ZM63.6869 27.92C63.6869 27.2893 63.8042 26.7357 64.0389 26.259C64.2809 25.7823 64.6072 25.4157 65.0179 25.159C65.4286 24.9023 65.8869 24.774 66.3929 24.774C66.8256 24.774 67.2032 24.862 67.5259 25.038C67.8559 25.214 68.1089 25.445 68.2849 25.731V24.862H70.1659V31H68.2849V30.131C68.1016 30.417 67.8449 30.648 67.5149 30.824C67.1922 31 66.8146 31.088 66.3819 31.088C65.8832 31.088 65.4286 30.9597 65.0179 30.703C64.6072 30.439 64.2809 30.0687 64.0389 29.592C63.8042 29.108 63.6869 28.5507 63.6869 27.92ZM68.2849 27.931C68.2849 27.4617 68.1529 27.0913 67.8889 26.82C67.6322 26.5487 67.3169 26.413 66.9429 26.413C66.5689 26.413 66.2499 26.5487 65.9859 26.82C65.7292 27.084 65.6009 27.4507 65.6009 27.92C65.6009 28.3893 65.7292 28.7633 65.9859 29.042C66.2499 29.3133 66.5689 29.449 66.9429 29.449C67.3169 29.449 67.6322 29.3133 67.8889 29.042C68.1529 28.7707 68.2849 28.4003 68.2849 27.931ZM75.2667 24.796C75.9854 24.796 76.5574 25.0307 76.9827 25.5C77.4154 25.962 77.6317 26.6 77.6317 27.414V31H75.7617V27.667C75.7617 27.2563 75.6554 26.9373 75.4427 26.71C75.2301 26.4827 74.9441 26.369 74.5847 26.369C74.2254 26.369 73.9394 26.4827 73.7267 26.71C73.5141 26.9373 73.4077 27.2563 73.4077 27.667V31H71.5267V24.862H73.4077V25.676C73.5984 25.4047 73.8551 25.192 74.1777 25.038C74.5004 24.8767 74.8634 24.796 75.2667 24.796ZM78.5648 27.931C78.5648 27.293 78.6932 26.7357 78.9498 26.259C79.2138 25.7823 79.5768 25.4157 80.0388 25.159C80.5082 24.9023 81.0435 24.774 81.6448 24.774C82.4148 24.774 83.0565 24.9757 83.5698 25.379C84.0905 25.7823 84.4315 26.3507 84.5928 27.084H82.5908C82.4222 26.6147 82.0958 26.38 81.6118 26.38C81.2672 26.38 80.9922 26.5157 80.7868 26.787C80.5815 27.051 80.4788 27.4323 80.4788 27.931C80.4788 28.4297 80.5815 28.8147 80.7868 29.086C80.9922 29.35 81.2672 29.482 81.6118 29.482C82.0958 29.482 82.4222 29.2473 82.5908 28.778H84.5928C84.4315 29.4967 84.0905 30.0613 83.5698 30.472C83.0492 30.8827 82.4075 31.088 81.6448 31.088C81.0435 31.088 80.5082 30.9597 80.0388 30.703C79.5768 30.4463 79.2138 30.0797 78.9498 29.603C78.6932 29.1263 78.5648 28.569 78.5648 27.931ZM91.385 27.832C91.385 28.008 91.374 28.1913 91.352 28.382H87.095C87.1243 28.7633 87.2453 29.0567 87.458 29.262C87.678 29.46 87.9457 29.559 88.261 29.559C88.7303 29.559 89.0567 29.361 89.24 28.965H91.242C91.1393 29.3683 90.9523 29.7313 90.681 30.054C90.417 30.3767 90.0833 30.6297 89.68 30.813C89.2767 30.9963 88.8257 31.088 88.327 31.088C87.7257 31.088 87.1903 30.9597 86.721 30.703C86.2517 30.4463 85.885 30.0797 85.621 29.603C85.357 29.1263 85.225 28.569 85.225 27.931C85.225 27.293 85.3533 26.7357 85.61 26.259C85.874 25.7823 86.2407 25.4157 86.71 25.159C87.1793 24.9023 87.7183 24.774 88.327 24.774C88.921 24.774 89.449 24.8987 89.911 25.148C90.373 25.3973 90.7323 25.753 90.989 26.215C91.253 26.677 91.385 27.216 91.385 27.832ZM89.46 27.337C89.46 27.0143 89.35 26.7577 89.13 26.567C88.91 26.3763 88.635 26.281 88.305 26.281C87.9897 26.281 87.722 26.3727 87.502 26.556C87.2893 26.7393 87.1573 26.9997 87.106 27.337H89.46ZM94.2583 22.86V31H92.3773V22.86H94.2583Z" fill="#A8A8A8"/>
<defs>
<filter id="filter0_d_3_245" x="0" y="0" width="152" height="52" filterUnits="userSpaceOnUse" color-interpolation-filters="sRGB">
<feFlood flood-opacity="0" result="BackgroundImageFix"/>
<feColorMatrix in="SourceAlpha" type="matrix" values="0 0 0 0 0 0 0 0 0 0 0 0 0 0 0 0 0 0 127 0" result="hardAlpha"/>
<feOffset/>
<feGaussianBlur stdDeviation="2"/>
<feComposite in2="hardAlpha" operator="out"/>
<feColorMatrix type="matrix" values="0 0 0 0 0 0 0 0 0 0 0 0 0 0 0 0 0 0 0.25 0"/>
<feBlend mode="normal" in2="BackgroundImageFix" result="effect1_dropShadow_3_245"/>
<feBlend mode="normal" in="SourceGraphic" in2="effect1_dropShadow_3_245" result="shape"/>
</filter>
</defs>
</svg>
