<svg width="152" height="52" viewBox="0 0 152 52" fill="none" xmlns="http://www.w3.org/2000/svg">
<g filter="url(#filter0_d_3_242)">
<rect x="4" y="4" width="144" height="44" rx="10" fill="#86C8BC"/>
<rect x="4.5" y="4.5" width="143" height="43" rx="9.5" stroke="white"/>
</g>
<path d="M54.363 27.128C54.363 26.3653 54.528 25.687 54.858 25.093C55.188 24.4917 55.6463 24.026 56.233 23.696C56.827 23.3587 57.498 23.19 58.246 23.19C59.1627 23.19 59.9473 23.432 60.6 23.916C61.2527 24.4 61.689 25.06 61.909 25.896H59.841C59.687 25.5733 59.467 25.3277 59.181 25.159C58.9023 24.9903 58.5833 24.906 58.224 24.906C57.6447 24.906 57.1753 25.1077 56.816 25.511C56.4567 25.9143 56.277 26.4533 56.277 27.128C56.277 27.8027 56.4567 28.3417 56.816 28.745C57.1753 29.1483 57.6447 29.35 58.224 29.35C58.5833 29.35 58.9023 29.2657 59.181 29.097C59.467 28.9283 59.687 28.6827 59.841 28.36H61.909C61.689 29.196 61.2527 29.856 60.6 30.34C59.9473 30.8167 59.1627 31.055 58.246 31.055C57.498 31.055 56.827 30.89 56.233 30.56C55.6463 30.2227 55.188 29.757 54.858 29.163C54.528 28.569 54.363 27.8907 54.363 27.128ZM65.8549 31.088C65.2536 31.088 64.7109 30.9597 64.2269 30.703C63.7502 30.4463 63.3726 30.0797 63.0939 29.603C62.8226 29.1263 62.6869 28.569 62.6869 27.931C62.6869 27.3003 62.8262 26.7467 63.1049 26.27C63.3836 25.786 63.7649 25.4157 64.2489 25.159C64.7329 24.9023 65.2756 24.774 65.8769 24.774C66.4782 24.774 67.0209 24.9023 67.5049 25.159C67.9889 25.4157 68.3702 25.786 68.6489 26.27C68.9276 26.7467 69.0669 27.3003 69.0669 27.931C69.0669 28.5617 68.9239 29.119 68.6379 29.603C68.3592 30.0797 67.9742 30.4463 67.4829 30.703C66.9989 30.9597 66.4562 31.088 65.8549 31.088ZM65.8549 29.46C66.2142 29.46 66.5186 29.328 66.7679 29.064C67.0246 28.8 67.1529 28.4223 67.1529 27.931C67.1529 27.4397 67.0282 27.062 66.7789 26.798C66.5369 26.534 66.2362 26.402 65.8769 26.402C65.5102 26.402 65.2059 26.534 64.9639 26.798C64.7219 27.0547 64.6009 27.4323 64.6009 27.931C64.6009 28.4223 64.7182 28.8 64.9529 29.064C65.1949 29.328 65.4956 29.46 65.8549 29.46ZM73.8048 24.796C74.5235 24.796 75.0955 25.0307 75.5208 25.5C75.9535 25.962 76.1698 26.6 76.1698 27.414V31H74.2998V27.667C74.2998 27.2563 74.1935 26.9373 73.9808 26.71C73.7681 26.4827 73.4821 26.369 73.1228 26.369C72.7635 26.369 72.4775 26.4827 72.2648 26.71C72.0521 26.9373 71.9458 27.2563 71.9458 27.667V31H70.0648V24.862H71.9458V25.676C72.1365 25.4047 72.3931 25.192 72.7158 25.038C73.0385 24.8767 73.4015 24.796 73.8048 24.796ZM80.5569 26.424H79.5449V31H77.6639V26.424H76.9819V24.862H77.6639V24.686C77.6639 23.9307 77.8803 23.3587 78.3129 22.97C78.7456 22.574 79.3799 22.376 80.2159 22.376C80.3553 22.376 80.4579 22.3797 80.5239 22.387V23.982C80.1646 23.96 79.9116 24.0113 79.7649 24.136C79.6183 24.2607 79.5449 24.4843 79.5449 24.807V24.862H80.5569V26.424ZM82.3868 24.224C82.0568 24.224 81.7855 24.1287 81.5728 23.938C81.3675 23.74 81.2648 23.498 81.2648 23.212C81.2648 22.9187 81.3675 22.6767 81.5728 22.486C81.7855 22.288 82.0568 22.189 82.3868 22.189C82.7095 22.189 82.9735 22.288 83.1788 22.486C83.3915 22.6767 83.4978 22.9187 83.4978 23.212C83.4978 23.498 83.3915 23.74 83.1788 23.938C82.9735 24.1287 82.7095 24.224 82.3868 24.224ZM83.3218 24.862V31H81.4408V24.862H83.3218ZM86.5659 25.885C86.7859 25.5477 87.0609 25.2837 87.3909 25.093C87.7209 24.895 88.0876 24.796 88.4909 24.796V26.787H87.9739C87.5046 26.787 87.1526 26.8897 86.9179 27.095C86.6833 27.293 86.5659 27.645 86.5659 28.151V31H84.6849V24.862H86.5659V25.885ZM97.222 24.796C97.9847 24.796 98.5897 25.027 99.037 25.489C99.4917 25.951 99.719 26.5927 99.719 27.414V31H97.849V27.667C97.849 27.271 97.7427 26.9667 97.53 26.754C97.3247 26.534 97.0387 26.424 96.672 26.424C96.3053 26.424 96.0157 26.534 95.803 26.754C95.5977 26.9667 95.495 27.271 95.495 27.667V31H93.625V27.667C93.625 27.271 93.5187 26.9667 93.306 26.754C93.1007 26.534 92.8147 26.424 92.448 26.424C92.0813 26.424 91.7917 26.534 91.579 26.754C91.3737 26.9667 91.271 27.271 91.271 27.667V31H89.39V24.862H91.271V25.632C91.4617 25.3753 91.711 25.1737 92.019 25.027C92.327 24.873 92.6753 24.796 93.064 24.796C93.526 24.796 93.9367 24.895 94.296 25.093C94.6627 25.291 94.9487 25.5733 95.154 25.94C95.3667 25.6027 95.6563 25.3277 96.023 25.115C96.3897 24.9023 96.7893 24.796 97.222 24.796Z" fill="white"/>
<defs>
<filter id="filter0_d_3_242" x="0" y="0" width="152" height="52" filterUnits="userSpaceOnUse" color-interpolation-filters="sRGB">
<feFlood flood-opacity="0" result="BackgroundImageFix"/>
<feColorMatrix in="SourceAlpha" type="matrix" values="0 0 0 0 0 0 0 0 0 0 0 0 0 0 0 0 0 0 127 0" result="hardAlpha"/>
<feOffset/>
<feGaussianBlur stdDeviation="2"/>
<feComposite in2="hardAlpha" operator="out"/>
<feColorMatrix type="matrix" values="0 0 0 0 0 0 0 0 0 0 0 0 0 0 0 0 0 0 0.25 0"/>
<feBlend mode="normal" in2="BackgroundImageFix" result="effect1_dropShadow_3_242"/>
<feBlend mode="normal" in="SourceGraphic" in2="effect1_dropShadow_3_242" result="shape"/>
</filter>
</defs>
</svg>
