<svg width="345" height="265" viewBox="0 0 345 265" fill="none" xmlns="http://www.w3.org/2000/svg">
<g filter="url(#filter0_d_54_2)">
<rect x="4" y="4" width="337" height="257" rx="15" fill="#86C8BC"/>
</g>
<g filter="url(#filter1_d_54_2)">
<rect x="15" y="179" width="317" height="64" rx="10" fill="white"/>
</g>
<path d="M168.059 43.591C168.059 44.345 167.799 44.9733 167.279 45.476C166.768 45.97 165.983 46.217 164.926 46.217H163.184V50H162.001V40.939H164.926C165.949 40.939 166.724 41.186 167.253 41.68C167.79 42.174 168.059 42.811 168.059 43.591ZM164.926 45.242C165.585 45.242 166.07 45.099 166.382 44.813C166.694 44.527 166.85 44.1197 166.85 43.591C166.85 42.473 166.209 41.914 164.926 41.914H163.184V45.242H164.926ZM172.636 50.117C171.969 50.117 171.362 49.9653 170.816 49.662C170.279 49.3587 169.854 48.9297 169.542 48.375C169.239 47.8117 169.087 47.1617 169.087 46.425C169.087 45.697 169.243 45.0557 169.555 44.501C169.876 43.9377 170.309 43.5087 170.855 43.214C171.401 42.9107 172.012 42.759 172.688 42.759C173.364 42.759 173.975 42.9107 174.521 43.214C175.067 43.5087 175.496 43.9333 175.808 44.488C176.129 45.0427 176.289 45.6883 176.289 46.425C176.289 47.1617 176.125 47.8117 175.795 48.375C175.475 48.9297 175.037 49.3587 174.482 49.662C173.928 49.9653 173.312 50.117 172.636 50.117ZM172.636 49.077C173.061 49.077 173.46 48.9773 173.832 48.778C174.205 48.5787 174.504 48.2797 174.729 47.881C174.963 47.4823 175.08 46.997 175.08 46.425C175.08 45.853 174.968 45.3677 174.742 44.969C174.517 44.5703 174.222 44.2757 173.858 44.085C173.494 43.8857 173.1 43.786 172.675 43.786C172.242 43.786 171.843 43.8857 171.479 44.085C171.124 44.2757 170.838 44.5703 170.621 44.969C170.405 45.3677 170.296 45.853 170.296 46.425C170.296 47.0057 170.4 47.4953 170.608 47.894C170.825 48.2927 171.111 48.5917 171.466 48.791C171.822 48.9817 172.212 49.077 172.636 49.077ZM178.456 41.719C178.23 41.719 178.04 41.641 177.884 41.485C177.728 41.329 177.65 41.1383 177.65 40.913C177.65 40.6877 177.728 40.497 177.884 40.341C178.04 40.185 178.23 40.107 178.456 40.107C178.672 40.107 178.854 40.185 179.002 40.341C179.158 40.497 179.236 40.6877 179.236 40.913C179.236 41.1383 179.158 41.329 179.002 41.485C178.854 41.641 178.672 41.719 178.456 41.719ZM179.028 42.876V50H177.845V42.876H179.028ZM184.515 42.746C185.382 42.746 186.084 43.0103 186.621 43.539C187.158 44.059 187.427 44.813 187.427 45.801V50H186.257V45.97C186.257 45.2593 186.079 44.7177 185.724 44.345C185.369 43.9637 184.883 43.773 184.268 43.773C183.644 43.773 183.146 43.968 182.773 44.358C182.409 44.748 182.227 45.3157 182.227 46.061V50H181.044V42.876H182.227V43.89C182.461 43.526 182.777 43.2443 183.176 43.045C183.583 42.8457 184.03 42.746 184.515 42.746ZM190.802 43.851V48.05C190.802 48.3967 190.876 48.6437 191.023 48.791C191.171 48.9297 191.426 48.999 191.79 48.999H192.661V50H191.595C190.937 50 190.443 49.8483 190.113 49.545C189.784 49.2417 189.619 48.7433 189.619 48.05V43.851H188.696V42.876H189.619V41.082H190.802V42.876H192.661V43.851H190.802ZM196.617 50.117C196.071 50.117 195.581 50.026 195.148 49.844C194.714 49.6533 194.372 49.3933 194.121 49.064C193.869 48.726 193.731 48.3403 193.705 47.907H194.927C194.961 48.2623 195.126 48.5527 195.421 48.778C195.724 49.0033 196.118 49.116 196.604 49.116C197.054 49.116 197.41 49.0163 197.67 48.817C197.93 48.6177 198.06 48.3663 198.06 48.063C198.06 47.751 197.921 47.5213 197.644 47.374C197.366 47.218 196.937 47.0663 196.357 46.919C195.828 46.7803 195.395 46.6417 195.057 46.503C194.727 46.3557 194.441 46.1433 194.199 45.866C193.965 45.58 193.848 45.2073 193.848 44.748C193.848 44.384 193.956 44.0503 194.173 43.747C194.389 43.4437 194.697 43.2053 195.096 43.032C195.494 42.85 195.949 42.759 196.461 42.759C197.249 42.759 197.886 42.9583 198.372 43.357C198.857 43.7557 199.117 44.3017 199.152 44.995H197.969C197.943 44.6223 197.791 44.3233 197.514 44.098C197.245 43.8727 196.881 43.76 196.422 43.76C195.997 43.76 195.659 43.851 195.408 44.033C195.156 44.215 195.031 44.4533 195.031 44.748C195.031 44.982 195.104 45.177 195.252 45.333C195.408 45.4803 195.598 45.6017 195.824 45.697C196.058 45.7837 196.378 45.8833 196.786 45.996C197.297 46.1347 197.713 46.2733 198.034 46.412C198.354 46.542 198.627 46.7413 198.853 47.01C199.087 47.2787 199.208 47.6297 199.217 48.063C199.217 48.453 199.108 48.804 198.892 49.116C198.675 49.428 198.367 49.675 197.969 49.857C197.579 50.0303 197.128 50.117 196.617 50.117Z" fill="white"/>
<path d="M47.072 190.636V191.524H44.792V199H43.7V191.524H41.408V190.636H47.072ZM49.5082 193.492C49.7002 193.116 49.9722 192.824 50.3242 192.616C50.6842 192.408 51.1202 192.304 51.6322 192.304V193.432H51.3442C50.1202 193.432 49.5082 194.096 49.5082 195.424V199H48.4162V192.424H49.5082V193.492ZM52.4848 195.688C52.4848 195.016 52.6208 194.428 52.8928 193.924C53.1648 193.412 53.5368 193.016 54.0088 192.736C54.4888 192.456 55.0208 192.316 55.6048 192.316C56.1808 192.316 56.6808 192.44 57.1048 192.688C57.5288 192.936 57.8448 193.248 58.0528 193.624V192.424H59.1568V199H58.0528V197.776C57.8368 198.16 57.5128 198.48 57.0808 198.736C56.6568 198.984 56.1608 199.108 55.5928 199.108C55.0088 199.108 54.4808 198.964 54.0088 198.676C53.5368 198.388 53.1648 197.984 52.8928 197.464C52.6208 196.944 52.4848 196.352 52.4848 195.688ZM58.0528 195.7C58.0528 195.204 57.9528 194.772 57.7528 194.404C57.5528 194.036 57.2808 193.756 56.9368 193.564C56.6008 193.364 56.2288 193.264 55.8208 193.264C55.4128 193.264 55.0408 193.36 54.7048 193.552C54.3688 193.744 54.1008 194.024 53.9008 194.392C53.7008 194.76 53.6008 195.192 53.6008 195.688C53.6008 196.192 53.7008 196.632 53.9008 197.008C54.1008 197.376 54.3688 197.66 54.7048 197.86C55.0408 198.052 55.4128 198.148 55.8208 198.148C56.2288 198.148 56.6008 198.052 56.9368 197.86C57.2808 197.66 57.5528 197.376 57.7528 197.008C57.9528 196.632 58.0528 196.196 58.0528 195.7ZM64.2061 192.304C65.0061 192.304 65.6541 192.548 66.1501 193.036C66.6461 193.516 66.8941 194.212 66.8941 195.124V199H65.8141V195.28C65.8141 194.624 65.6501 194.124 65.3221 193.78C64.9941 193.428 64.5461 193.252 63.9781 193.252C63.4021 193.252 62.9421 193.432 62.5981 193.792C62.2621 194.152 62.0941 194.676 62.0941 195.364V199H61.0021V192.424H62.0941V193.36C62.3101 193.024 62.6021 192.764 62.9701 192.58C63.3461 192.396 63.7581 192.304 64.2061 192.304ZM71.0059 199.108C70.5019 199.108 70.0499 199.024 69.6499 198.856C69.2499 198.68 68.9339 198.44 68.7019 198.136C68.4699 197.824 68.3419 197.468 68.3179 197.068H69.4459C69.4779 197.396 69.6299 197.664 69.9019 197.872C70.1819 198.08 70.5459 198.184 70.9939 198.184C71.4099 198.184 71.7379 198.092 71.9779 197.908C72.2179 197.724 72.3379 197.492 72.3379 197.212C72.3379 196.924 72.2099 196.712 71.9539 196.576C71.6979 196.432 71.3019 196.292 70.7659 196.156C70.2779 196.028 69.8779 195.9 69.5659 195.772C69.2619 195.636 68.9979 195.44 68.7739 195.184C68.5579 194.92 68.4499 194.576 68.4499 194.152C68.4499 193.816 68.5499 193.508 68.7499 193.228C68.9499 192.948 69.2339 192.728 69.6019 192.568C69.9699 192.4 70.3899 192.316 70.8619 192.316C71.5899 192.316 72.1779 192.5 72.6259 192.868C73.0739 193.236 73.3139 193.74 73.3459 194.38H72.2539C72.2299 194.036 72.0899 193.76 71.8339 193.552C71.5859 193.344 71.2499 193.24 70.8259 193.24C70.4339 193.24 70.1219 193.324 69.8899 193.492C69.6579 193.66 69.5419 193.88 69.5419 194.152C69.5419 194.368 69.6099 194.548 69.7459 194.692C69.8899 194.828 70.0659 194.94 70.2739 195.028C70.4899 195.108 70.7859 195.2 71.1619 195.304C71.6339 195.432 72.0179 195.56 72.3139 195.688C72.6099 195.808 72.8619 195.992 73.0699 196.24C73.2859 196.488 73.3979 196.812 73.4059 197.212C73.4059 197.572 73.3059 197.896 73.1059 198.184C72.9059 198.472 72.6219 198.7 72.2539 198.868C71.8939 199.028 71.4779 199.108 71.0059 199.108ZM74.5394 195.688C74.5394 195.016 74.6754 194.428 74.9474 193.924C75.2194 193.412 75.5914 193.016 76.0634 192.736C76.5434 192.456 77.0754 192.316 77.6594 192.316C78.2354 192.316 78.7354 192.44 79.1594 192.688C79.5834 192.936 79.8994 193.248 80.1074 193.624V192.424H81.2114V199H80.1074V197.776C79.8914 198.16 79.5674 198.48 79.1354 198.736C78.7114 198.984 78.2154 199.108 77.6474 199.108C77.0634 199.108 76.5354 198.964 76.0634 198.676C75.5914 198.388 75.2194 197.984 74.9474 197.464C74.6754 196.944 74.5394 196.352 74.5394 195.688ZM80.1074 195.7C80.1074 195.204 80.0074 194.772 79.8074 194.404C79.6074 194.036 79.3354 193.756 78.9914 193.564C78.6554 193.364 78.2834 193.264 77.8754 193.264C77.4674 193.264 77.0954 193.36 76.7594 193.552C76.4234 193.744 76.1554 194.024 75.9554 194.392C75.7554 194.76 75.6554 195.192 75.6554 195.688C75.6554 196.192 75.7554 196.632 75.9554 197.008C76.1554 197.376 76.4234 197.66 76.7594 197.86C77.0954 198.052 77.4674 198.148 77.8754 198.148C78.2834 198.148 78.6554 198.052 78.9914 197.86C79.3354 197.66 79.6074 197.376 79.8074 197.008C80.0074 196.632 80.1074 196.196 80.1074 195.7ZM86.7288 199L84.1488 196.096V199H83.0568V190.12H84.1488V195.34L86.6808 192.424H88.2048L85.1088 195.7L88.2168 199H86.7288ZM91.5606 199.108C91.0566 199.108 90.6046 199.024 90.2046 198.856C89.8046 198.68 89.4886 198.44 89.2566 198.136C89.0246 197.824 88.8966 197.468 88.8726 197.068H90.0006C90.0326 197.396 90.1846 197.664 90.4566 197.872C90.7366 198.08 91.1006 198.184 91.5486 198.184C91.9646 198.184 92.2926 198.092 92.5326 197.908C92.7726 197.724 92.8926 197.492 92.8926 197.212C92.8926 196.924 92.7646 196.712 92.5086 196.576C92.2526 196.432 91.8566 196.292 91.3206 196.156C90.8326 196.028 90.4326 195.9 90.1206 195.772C89.8166 195.636 89.5526 195.44 89.3286 195.184C89.1126 194.92 89.0046 194.576 89.0046 194.152C89.0046 193.816 89.1046 193.508 89.3046 193.228C89.5046 192.948 89.7886 192.728 90.1566 192.568C90.5246 192.4 90.9446 192.316 91.4166 192.316C92.1446 192.316 92.7326 192.5 93.1806 192.868C93.6286 193.236 93.8686 193.74 93.9006 194.38H92.8086C92.7846 194.036 92.6446 193.76 92.3886 193.552C92.1406 193.344 91.8046 193.24 91.3806 193.24C90.9886 193.24 90.6766 193.324 90.4446 193.492C90.2126 193.66 90.0966 193.88 90.0966 194.152C90.0966 194.368 90.1646 194.548 90.3006 194.692C90.4446 194.828 90.6206 194.94 90.8286 195.028C91.0446 195.108 91.3406 195.2 91.7166 195.304C92.1886 195.432 92.5726 195.56 92.8686 195.688C93.1646 195.808 93.4166 195.992 93.6246 196.24C93.8406 196.488 93.9526 196.812 93.9606 197.212C93.9606 197.572 93.8606 197.896 93.6606 198.184C93.4606 198.472 93.1766 198.7 92.8086 198.868C92.4486 199.028 92.0326 199.108 91.5606 199.108ZM96.0661 191.356C95.8581 191.356 95.6821 191.284 95.5381 191.14C95.3941 190.996 95.3221 190.82 95.3221 190.612C95.3221 190.404 95.3941 190.228 95.5381 190.084C95.6821 189.94 95.8581 189.868 96.0661 189.868C96.2661 189.868 96.4341 189.94 96.5701 190.084C96.7141 190.228 96.7861 190.404 96.7861 190.612C96.7861 190.82 96.7141 190.996 96.5701 191.14C96.4341 191.284 96.2661 191.356 96.0661 191.356ZM96.5941 192.424V199H95.5021V192.424H96.5941Z" fill="#252525"/>
<path d="M139.516 193.084C139.516 193.78 139.276 194.36 138.796 194.824C138.324 195.28 137.6 195.508 136.624 195.508H135.016V199H133.924V190.636H136.624C137.568 190.636 138.284 190.864 138.772 191.32C139.268 191.776 139.516 192.364 139.516 193.084ZM136.624 194.608C137.232 194.608 137.68 194.476 137.968 194.212C138.256 193.948 138.4 193.572 138.4 193.084C138.4 192.052 137.808 191.536 136.624 191.536H135.016V194.608H136.624ZM146.873 195.46C146.873 195.668 146.861 195.888 146.837 196.12H141.581C141.621 196.768 141.841 197.276 142.241 197.644C142.649 198.004 143.141 198.184 143.717 198.184C144.189 198.184 144.581 198.076 144.893 197.86C145.213 197.636 145.437 197.34 145.565 196.972H146.741C146.565 197.604 146.213 198.12 145.685 198.52C145.157 198.912 144.501 199.108 143.717 199.108C143.093 199.108 142.533 198.968 142.037 198.688C141.549 198.408 141.165 198.012 140.885 197.5C140.605 196.98 140.465 196.38 140.465 195.7C140.465 195.02 140.601 194.424 140.873 193.912C141.145 193.4 141.525 193.008 142.013 192.736C142.509 192.456 143.077 192.316 143.717 192.316C144.341 192.316 144.893 192.452 145.373 192.724C145.853 192.996 146.221 193.372 146.477 193.852C146.741 194.324 146.873 194.86 146.873 195.46ZM145.745 195.232C145.745 194.816 145.653 194.46 145.469 194.164C145.285 193.86 145.033 193.632 144.713 193.48C144.401 193.32 144.053 193.24 143.669 193.24C143.117 193.24 142.645 193.416 142.253 193.768C141.869 194.12 141.649 194.608 141.593 195.232H145.745ZM151.519 192.304C152.319 192.304 152.967 192.548 153.463 193.036C153.959 193.516 154.207 194.212 154.207 195.124V199H153.127V195.28C153.127 194.624 152.963 194.124 152.635 193.78C152.307 193.428 151.859 193.252 151.291 193.252C150.715 193.252 150.255 193.432 149.911 193.792C149.575 194.152 149.407 194.676 149.407 195.364V199H148.315V192.424H149.407V193.36C149.623 193.024 149.915 192.764 150.283 192.58C150.659 192.396 151.071 192.304 151.519 192.304ZM155.582 195.688C155.582 195.016 155.718 194.428 155.99 193.924C156.262 193.412 156.634 193.016 157.106 192.736C157.586 192.456 158.122 192.316 158.714 192.316C159.226 192.316 159.702 192.436 160.142 192.676C160.582 192.908 160.918 193.216 161.15 193.6V190.12H162.254V199H161.15V197.764C160.934 198.156 160.614 198.48 160.19 198.736C159.766 198.984 159.27 199.108 158.702 199.108C158.118 199.108 157.586 198.964 157.106 198.676C156.634 198.388 156.262 197.984 155.99 197.464C155.718 196.944 155.582 196.352 155.582 195.688ZM161.15 195.7C161.15 195.204 161.05 194.772 160.85 194.404C160.65 194.036 160.378 193.756 160.034 193.564C159.698 193.364 159.326 193.264 158.918 193.264C158.51 193.264 158.138 193.36 157.802 193.552C157.466 193.744 157.198 194.024 156.998 194.392C156.798 194.76 156.698 195.192 156.698 195.688C156.698 196.192 156.798 196.632 156.998 197.008C157.198 197.376 157.466 197.66 157.802 197.86C158.138 198.052 158.51 198.148 158.918 198.148C159.326 198.148 159.698 198.052 160.034 197.86C160.378 197.66 160.65 197.376 160.85 197.008C161.05 196.632 161.15 196.196 161.15 195.7ZM163.692 195.688C163.692 195.016 163.828 194.428 164.1 193.924C164.372 193.412 164.744 193.016 165.216 192.736C165.696 192.456 166.228 192.316 166.812 192.316C167.388 192.316 167.888 192.44 168.312 192.688C168.736 192.936 169.052 193.248 169.26 193.624V192.424H170.364V199H169.26V197.776C169.044 198.16 168.72 198.48 168.288 198.736C167.864 198.984 167.368 199.108 166.8 199.108C166.216 199.108 165.688 198.964 165.216 198.676C164.744 198.388 164.372 197.984 164.1 197.464C163.828 196.944 163.692 196.352 163.692 195.688ZM169.26 195.7C169.26 195.204 169.16 194.772 168.96 194.404C168.76 194.036 168.488 193.756 168.144 193.564C167.808 193.364 167.436 193.264 167.028 193.264C166.62 193.264 166.248 193.36 165.912 193.552C165.576 193.744 165.308 194.024 165.108 194.392C164.908 194.76 164.808 195.192 164.808 195.688C164.808 196.192 164.908 196.632 165.108 197.008C165.308 197.376 165.576 197.66 165.912 197.86C166.248 198.052 166.62 198.148 167.028 198.148C167.436 198.148 167.808 198.052 168.144 197.86C168.488 197.66 168.76 197.376 168.96 197.008C169.16 196.632 169.26 196.196 169.26 195.7ZM173.301 193.636C173.517 193.26 173.837 192.948 174.261 192.7C174.693 192.444 175.193 192.316 175.761 192.316C176.345 192.316 176.873 192.456 177.345 192.736C177.825 193.016 178.201 193.412 178.473 193.924C178.745 194.428 178.881 195.016 178.881 195.688C178.881 196.352 178.745 196.944 178.473 197.464C178.201 197.984 177.825 198.388 177.345 198.676C176.873 198.964 176.345 199.108 175.761 199.108C175.201 199.108 174.705 198.984 174.273 198.736C173.849 198.48 173.525 198.164 173.301 197.788V202.12H172.209V192.424H173.301V193.636ZM177.765 195.688C177.765 195.192 177.665 194.76 177.465 194.392C177.265 194.024 176.993 193.744 176.649 193.552C176.313 193.36 175.941 193.264 175.533 193.264C175.133 193.264 174.761 193.364 174.417 193.564C174.081 193.756 173.809 194.04 173.601 194.416C173.401 194.784 173.301 195.212 173.301 195.7C173.301 196.196 173.401 196.632 173.601 197.008C173.809 197.376 174.081 197.66 174.417 197.86C174.761 198.052 175.133 198.148 175.533 198.148C175.941 198.148 176.313 198.052 176.649 197.86C176.993 197.66 177.265 197.376 177.465 197.008C177.665 196.632 177.765 196.192 177.765 195.688ZM179.911 195.688C179.911 195.016 180.047 194.428 180.319 193.924C180.591 193.412 180.963 193.016 181.435 192.736C181.915 192.456 182.447 192.316 183.031 192.316C183.607 192.316 184.107 192.44 184.531 192.688C184.955 192.936 185.271 193.248 185.479 193.624V192.424H186.583V199H185.479V197.776C185.263 198.16 184.939 198.48 184.507 198.736C184.083 198.984 183.587 199.108 183.019 199.108C182.435 199.108 181.907 198.964 181.435 198.676C180.963 198.388 180.591 197.984 180.319 197.464C180.047 196.944 179.911 196.352 179.911 195.688ZM185.479 195.7C185.479 195.204 185.379 194.772 185.179 194.404C184.979 194.036 184.707 193.756 184.363 193.564C184.027 193.364 183.655 193.264 183.247 193.264C182.839 193.264 182.467 193.36 182.131 193.552C181.795 193.744 181.527 194.024 181.327 194.392C181.127 194.76 181.027 195.192 181.027 195.688C181.027 196.192 181.127 196.632 181.327 197.008C181.527 197.376 181.795 197.66 182.131 197.86C182.467 198.052 182.839 198.148 183.247 198.148C183.655 198.148 184.027 198.052 184.363 197.86C184.707 197.66 184.979 197.376 185.179 197.008C185.379 196.632 185.479 196.196 185.479 195.7ZM189.76 193.324V197.2C189.76 197.52 189.828 197.748 189.964 197.884C190.1 198.012 190.336 198.076 190.672 198.076H191.476V199H190.492C189.884 199 189.428 198.86 189.124 198.58C188.82 198.3 188.668 197.84 188.668 197.2V193.324H187.816V192.424H188.668V190.768H189.76V192.424H191.476V193.324H189.76ZM192.391 195.688C192.391 195.016 192.527 194.428 192.799 193.924C193.071 193.412 193.443 193.016 193.915 192.736C194.395 192.456 194.927 192.316 195.511 192.316C196.087 192.316 196.587 192.44 197.011 192.688C197.435 192.936 197.751 193.248 197.959 193.624V192.424H199.063V199H197.959V197.776C197.743 198.16 197.419 198.48 196.987 198.736C196.563 198.984 196.067 199.108 195.499 199.108C194.915 199.108 194.387 198.964 193.915 198.676C193.443 198.388 193.071 197.984 192.799 197.464C192.527 196.944 192.391 196.352 192.391 195.688ZM197.959 195.7C197.959 195.204 197.859 194.772 197.659 194.404C197.459 194.036 197.187 193.756 196.843 193.564C196.507 193.364 196.135 193.264 195.727 193.264C195.319 193.264 194.947 193.36 194.611 193.552C194.275 193.744 194.007 194.024 193.807 194.392C193.607 194.76 193.507 195.192 193.507 195.688C193.507 196.192 193.607 196.632 193.807 197.008C194.007 197.376 194.275 197.66 194.611 197.86C194.947 198.052 195.319 198.148 195.727 198.148C196.135 198.148 196.507 198.052 196.843 197.86C197.187 197.66 197.459 197.376 197.659 197.008C197.859 196.632 197.959 196.196 197.959 195.7ZM204.112 192.304C204.912 192.304 205.56 192.548 206.056 193.036C206.552 193.516 206.8 194.212 206.8 195.124V199H205.72V195.28C205.72 194.624 205.556 194.124 205.228 193.78C204.9 193.428 204.452 193.252 203.884 193.252C203.308 193.252 202.848 193.432 202.504 193.792C202.168 194.152 202 194.676 202 195.364V199H200.908V192.424H202V193.36C202.216 193.024 202.508 192.764 202.876 192.58C203.252 192.396 203.664 192.304 204.112 192.304Z" fill="#252525"/>
<path d="M250.408 190.696V199H249.316V192.808L246.556 199H245.788L243.016 192.796V199H241.924V190.696H243.1L246.172 197.56L249.244 190.696H250.408ZM258.26 195.46C258.26 195.668 258.248 195.888 258.224 196.12H252.968C253.008 196.768 253.228 197.276 253.628 197.644C254.036 198.004 254.528 198.184 255.104 198.184C255.576 198.184 255.968 198.076 256.28 197.86C256.6 197.636 256.824 197.34 256.952 196.972H258.128C257.952 197.604 257.6 198.12 257.072 198.52C256.544 198.912 255.888 199.108 255.104 199.108C254.48 199.108 253.92 198.968 253.424 198.688C252.936 198.408 252.552 198.012 252.272 197.5C251.992 196.98 251.852 196.38 251.852 195.7C251.852 195.02 251.988 194.424 252.26 193.912C252.532 193.4 252.912 193.008 253.4 192.736C253.896 192.456 254.464 192.316 255.104 192.316C255.728 192.316 256.28 192.452 256.76 192.724C257.24 192.996 257.608 193.372 257.864 193.852C258.128 194.324 258.26 194.86 258.26 195.46ZM257.132 195.232C257.132 194.816 257.04 194.46 256.856 194.164C256.672 193.86 256.42 193.632 256.1 193.48C255.788 193.32 255.44 193.24 255.056 193.24C254.504 193.24 254.032 193.416 253.64 193.768C253.256 194.12 253.036 194.608 252.98 195.232H257.132ZM262.905 192.304C263.705 192.304 264.353 192.548 264.849 193.036C265.345 193.516 265.593 194.212 265.593 195.124V199H264.513V195.28C264.513 194.624 264.349 194.124 264.021 193.78C263.693 193.428 263.245 193.252 262.677 193.252C262.101 193.252 261.641 193.432 261.297 193.792C260.961 194.152 260.793 194.676 260.793 195.364V199H259.701V192.424H260.793V193.36C261.009 193.024 261.301 192.764 261.669 192.58C262.045 192.396 262.457 192.304 262.905 192.304ZM273.209 192.424V199H272.117V198.028C271.909 198.364 271.617 198.628 271.241 198.82C270.873 199.004 270.465 199.096 270.017 199.096C269.505 199.096 269.045 198.992 268.637 198.784C268.229 198.568 267.905 198.248 267.665 197.824C267.433 197.4 267.317 196.884 267.317 196.276V192.424H268.397V196.132C268.397 196.78 268.561 197.28 268.889 197.632C269.217 197.976 269.665 198.148 270.233 198.148C270.817 198.148 271.277 197.968 271.613 197.608C271.949 197.248 272.117 196.724 272.117 196.036V192.424H273.209ZM278.257 192.304C279.057 192.304 279.705 192.548 280.201 193.036C280.697 193.516 280.945 194.212 280.945 195.124V199H279.865V195.28C279.865 194.624 279.701 194.124 279.373 193.78C279.045 193.428 278.597 193.252 278.029 193.252C277.453 193.252 276.993 193.432 276.649 193.792C276.313 194.152 276.145 194.676 276.145 195.364V199H275.053V192.424H276.145V193.36C276.361 193.024 276.653 192.764 277.021 192.58C277.397 192.396 277.809 192.304 278.257 192.304ZM285.441 192.316C286.009 192.316 286.505 192.44 286.929 192.688C287.361 192.936 287.681 193.248 287.889 193.624V192.424H288.993V199.144C288.993 199.744 288.865 200.276 288.609 200.74C288.353 201.212 287.985 201.58 287.505 201.844C287.033 202.108 286.481 202.24 285.849 202.24C284.985 202.24 284.265 202.036 283.689 201.628C283.113 201.22 282.773 200.664 282.669 199.96H283.749C283.869 200.36 284.117 200.68 284.493 200.92C284.869 201.168 285.321 201.292 285.849 201.292C286.449 201.292 286.937 201.104 287.313 200.728C287.697 200.352 287.889 199.824 287.889 199.144V197.764C287.673 198.148 287.353 198.468 286.929 198.724C286.505 198.98 286.009 199.108 285.441 199.108C284.857 199.108 284.325 198.964 283.845 198.676C283.373 198.388 283.001 197.984 282.729 197.464C282.457 196.944 282.321 196.352 282.321 195.688C282.321 195.016 282.457 194.428 282.729 193.924C283.001 193.412 283.373 193.016 283.845 192.736C284.325 192.456 284.857 192.316 285.441 192.316ZM287.889 195.7C287.889 195.204 287.789 194.772 287.589 194.404C287.389 194.036 287.117 193.756 286.773 193.564C286.437 193.364 286.065 193.264 285.657 193.264C285.249 193.264 284.877 193.36 284.541 193.552C284.205 193.744 283.937 194.024 283.737 194.392C283.537 194.76 283.437 195.192 283.437 195.688C283.437 196.192 283.537 196.632 283.737 197.008C283.937 197.376 284.205 197.66 284.541 197.86C284.877 198.052 285.249 198.148 285.657 198.148C286.065 198.148 286.437 198.052 286.773 197.86C287.117 197.66 287.389 197.376 287.589 197.008C287.789 196.632 287.889 196.196 287.889 195.7ZM293.55 192.316C294.118 192.316 294.614 192.44 295.038 192.688C295.47 192.936 295.79 193.248 295.998 193.624V192.424H297.102V199.144C297.102 199.744 296.974 200.276 296.718 200.74C296.462 201.212 296.094 201.58 295.614 201.844C295.142 202.108 294.59 202.24 293.958 202.24C293.094 202.24 292.374 202.036 291.798 201.628C291.222 201.22 290.882 200.664 290.778 199.96H291.858C291.978 200.36 292.226 200.68 292.602 200.92C292.978 201.168 293.43 201.292 293.958 201.292C294.558 201.292 295.046 201.104 295.422 200.728C295.806 200.352 295.998 199.824 295.998 199.144V197.764C295.782 198.148 295.462 198.468 295.038 198.724C294.614 198.98 294.118 199.108 293.55 199.108C292.966 199.108 292.434 198.964 291.954 198.676C291.482 198.388 291.11 197.984 290.838 197.464C290.566 196.944 290.43 196.352 290.43 195.688C290.43 195.016 290.566 194.428 290.838 193.924C291.11 193.412 291.482 193.016 291.954 192.736C292.434 192.456 292.966 192.316 293.55 192.316ZM295.998 195.7C295.998 195.204 295.898 194.772 295.698 194.404C295.498 194.036 295.226 193.756 294.882 193.564C294.546 193.364 294.174 193.264 293.766 193.264C293.358 193.264 292.986 193.36 292.65 193.552C292.314 193.744 292.046 194.024 291.846 194.392C291.646 194.76 291.546 195.192 291.546 195.688C291.546 196.192 291.646 196.632 291.846 197.008C292.046 197.376 292.314 197.66 292.65 197.86C292.986 198.052 293.358 198.148 293.766 198.148C294.174 198.148 294.546 198.052 294.882 197.86C295.226 197.66 295.498 197.376 295.698 197.008C295.898 196.632 295.998 196.196 295.998 195.7ZM304.779 192.424V199H303.687V198.028C303.479 198.364 303.187 198.628 302.811 198.82C302.443 199.004 302.035 199.096 301.587 199.096C301.075 199.096 300.615 198.992 300.207 198.784C299.799 198.568 299.475 198.248 299.235 197.824C299.003 197.4 298.887 196.884 298.887 196.276V192.424H299.967V196.132C299.967 196.78 300.131 197.28 300.459 197.632C300.787 197.976 301.235 198.148 301.803 198.148C302.387 198.148 302.847 197.968 303.183 197.608C303.519 197.248 303.687 196.724 303.687 196.036V192.424H304.779Z" fill="#252525"/>
<line x1="115.5" y1="187" x2="115.5" y2="231.011" stroke="#DDDDDD"/>
<line x1="224.5" y1="186" x2="224.5" y2="230.011" stroke="#DDDDDD"/>
<path d="M146.917 36.6667V34.8333C151.188 35.2917 154.552 38.6742 155.029 42.9458C155.579 47.9783 151.958 52.5067 146.917 53.0567V51.2233C150.253 50.8108 152.875 48.18 153.297 44.8433C153.415 43.8874 153.345 42.9175 153.088 41.989C152.832 41.0605 152.395 40.1916 151.802 39.4322C151.209 38.6728 150.473 38.0376 149.635 37.5631C148.796 37.0885 147.873 36.7839 146.917 36.6667ZM140.197 36.85C141.587 35.7029 143.289 35.0002 145.083 34.8333V36.7217C143.772 36.905 142.535 37.4367 141.508 38.2617L140.197 36.85ZM136.879 43.0833C137.049 41.2885 137.755 39.5862 138.905 38.1975L140.216 39.5083C139.404 40.5439 138.884 41.7786 138.712 43.0833H136.879ZM138.914 49.8025C137.775 48.4072 137.071 46.7084 136.888 44.9167H138.722C138.887 46.2183 139.409 47.4558 140.216 48.4917L138.914 49.8025ZM140.197 51.095L141.472 49.8392H141.508C142.544 50.6458 143.782 51.1683 145.083 51.3333V53.1667C143.287 52.9742 141.582 52.25 140.197 51.095ZM146 48.5833L147.43 45.4483L150.583 44L147.43 42.57L146 39.4167L144.561 42.57L141.417 44L144.561 45.4483L146 48.5833Z" fill="white"/>
<defs>
<filter id="filter0_d_54_2" x="0" y="0" width="345" height="265" filterUnits="userSpaceOnUse" color-interpolation-filters="sRGB">
<feFlood flood-opacity="0" result="BackgroundImageFix"/>
<feColorMatrix in="SourceAlpha" type="matrix" values="0 0 0 0 0 0 0 0 0 0 0 0 0 0 0 0 0 0 127 0" result="hardAlpha"/>
<feOffset/>
<feGaussianBlur stdDeviation="2"/>
<feComposite in2="hardAlpha" operator="out"/>
<feColorMatrix type="matrix" values="0 0 0 0 0 0 0 0 0 0 0 0 0 0 0 0 0 0 0.25 0"/>
<feBlend mode="normal" in2="BackgroundImageFix" result="effect1_dropShadow_54_2"/>
<feBlend mode="normal" in="SourceGraphic" in2="effect1_dropShadow_54_2" result="shape"/>
</filter>
<filter id="filter1_d_54_2" x="11" y="175" width="325" height="72" filterUnits="userSpaceOnUse" color-interpolation-filters="sRGB">
<feFlood flood-opacity="0" result="BackgroundImageFix"/>
<feColorMatrix in="SourceAlpha" type="matrix" values="0 0 0 0 0 0 0 0 0 0 0 0 0 0 0 0 0 0 127 0" result="hardAlpha"/>
<feOffset/>
<feGaussianBlur stdDeviation="2"/>
<feComposite in2="hardAlpha" operator="out"/>
<feColorMatrix type="matrix" values="0 0 0 0 0 0 0 0 0 0 0 0 0 0 0 0 0 0 0.25 0"/>
<feBlend mode="normal" in2="BackgroundImageFix" result="effect1_dropShadow_54_2"/>
<feBlend mode="normal" in="SourceGraphic" in2="effect1_dropShadow_54_2" result="shape"/>
</filter>
</defs>
</svg>
