<svg width="51" height="48" viewBox="0 0 51 48" fill="none" xmlns="http://www.w3.org/2000/svg">
<path d="M9.84368 2.90625C9.84368 2.13546 10.1499 1.39625 10.6949 0.851221C11.2399 0.306193 11.9791 0 12.7499 0C13.5207 0 14.2599 0.306193 14.805 0.851221C15.35 1.39625 15.6562 2.13546 15.6562 2.90625C15.6562 3.67704 15.35 4.41625 14.805 4.96128C14.2599 5.50631 13.5207 5.8125 12.7499 5.8125C11.9791 5.8125 11.2399 5.50631 10.6949 4.96128C10.1499 4.41625 9.84368 3.67704 9.84368 2.90625ZM13.7187 14.6342V18.5758L16.8066 21.6637C17.2365 22.0936 17.521 22.6445 17.6179 23.2439L18.5382 28.7477C18.7138 29.8012 17.9993 30.8002 16.9458 30.9758C15.8923 31.1514 14.8933 30.4369 14.7177 29.3834L13.8519 24.1824L9.04446 19.375C8.3179 18.6484 7.90618 17.6615 7.90618 16.6322V11.298C7.90618 9.33633 9.49251 7.75 11.4542 7.75C12.9134 7.75 14.2697 8.47656 15.081 9.6875L17.9509 13.9924L18.5624 14.2951V9.6875C18.5624 8.61582 19.4283 7.75 20.4999 7.75H28.2499C29.3216 7.75 30.1874 8.61582 30.1874 9.6875V14.3012L30.799 13.9984L33.6689 9.6875C34.4742 8.47656 35.8365 7.75 37.2956 7.75C39.2574 7.75 40.8437 9.33633 40.8437 11.298V16.6322C40.8437 17.6615 40.438 18.6484 39.7115 19.375L34.904 24.1824L34.0382 29.3834C33.8626 30.4369 32.8636 31.1514 31.8101 30.9758C30.7566 30.8002 30.0421 29.8012 30.2177 28.7477L31.138 23.2439C31.2349 22.6445 31.5195 22.0936 31.9493 21.6637L35.0372 18.5758V14.6342L33.8868 16.3598C33.6083 16.7836 33.2208 17.1227 32.7667 17.3467L29.1581 19.151C29.0128 19.2297 28.8615 19.2842 28.698 19.3205C28.5406 19.3568 28.3771 19.375 28.2197 19.3689H20.5423C20.3909 19.375 20.2396 19.3568 20.0882 19.3266C19.9126 19.2902 19.7492 19.2297 19.5978 19.1449L15.9952 17.3406C15.5411 17.1166 15.1597 16.7715 14.8751 16.3537L13.7247 14.6281L13.7187 14.6342ZM5.13919 28.342L8.03333 21.1066L11.0122 24.0855L8.73567 29.777C8.33606 30.7699 7.20989 31.2543 6.21692 30.8547C5.22395 30.4551 4.73958 29.335 5.13919 28.342ZM35.9999 0C36.7707 0 37.5099 0.306193 38.055 0.851221C38.6 1.39625 38.9062 2.13546 38.9062 2.90625C38.9062 3.67704 38.6 4.41625 38.055 4.96128C37.5099 5.50631 36.7707 5.8125 35.9999 5.8125C35.2291 5.8125 34.4899 5.50631 33.9449 4.96128C33.3999 4.41625 33.0937 3.67704 33.0937 2.90625C33.0937 2.13546 33.3999 1.39625 33.9449 0.851221C34.4899 0.306193 35.2291 0 35.9999 0ZM40.7165 21.1066L43.6107 28.342C44.0103 29.335 43.5259 30.4611 42.5329 30.8607C41.54 31.2604 40.4138 30.776 40.0142 29.783L37.7376 24.0916L40.7165 21.1127V21.1066Z" fill="#86C8BC"/>
<path d="M3.528 35.636C4.44 35.636 5.228 35.808 5.892 36.152C6.564 36.488 7.076 36.972 7.428 37.604C7.788 38.236 7.968 38.98 7.968 39.836C7.968 40.692 7.788 41.436 7.428 42.068C7.076 42.692 6.564 43.172 5.892 43.508C5.228 43.836 4.44 44 3.528 44H0.924V35.636H3.528ZM3.528 43.1C4.608 43.1 5.432 42.816 6 42.248C6.568 41.672 6.852 40.868 6.852 39.836C6.852 38.796 6.564 37.984 5.988 37.4C5.42 36.816 4.6 36.524 3.528 36.524H2.016V43.1H3.528ZM10.5004 38.492C10.6924 38.116 10.9644 37.824 11.3164 37.616C11.6764 37.408 12.1124 37.304 12.6244 37.304V38.432H12.3364C11.1124 38.432 10.5004 39.096 10.5004 40.424V44H9.40838V37.424H10.5004V38.492ZM16.7529 44.108C16.1369 44.108 15.5769 43.968 15.0729 43.688C14.5769 43.408 14.1849 43.012 13.8969 42.5C13.6169 41.98 13.4769 41.38 13.4769 40.7C13.4769 40.028 13.6209 39.436 13.9089 38.924C14.2049 38.404 14.6049 38.008 15.1089 37.736C15.6129 37.456 16.1769 37.316 16.8009 37.316C17.4249 37.316 17.9889 37.456 18.4929 37.736C18.9969 38.008 19.3929 38.4 19.6809 38.912C19.9769 39.424 20.1249 40.02 20.1249 40.7C20.1249 41.38 19.9729 41.98 19.6689 42.5C19.3729 43.012 18.9689 43.408 18.4569 43.688C17.9449 43.968 17.3769 44.108 16.7529 44.108ZM16.7529 43.148C17.1449 43.148 17.5129 43.056 17.8569 42.872C18.2009 42.688 18.4769 42.412 18.6849 42.044C18.9009 41.676 19.0089 41.228 19.0089 40.7C19.0089 40.172 18.9049 39.724 18.6969 39.356C18.4889 38.988 18.2169 38.716 17.8809 38.54C17.5449 38.356 17.1809 38.264 16.7889 38.264C16.3889 38.264 16.0209 38.356 15.6849 38.54C15.3569 38.716 15.0929 38.988 14.8929 39.356C14.6929 39.724 14.5929 40.172 14.5929 40.7C14.5929 41.236 14.6889 41.688 14.8809 42.056C15.0809 42.424 15.3449 42.7 15.6729 42.884C16.0009 43.06 16.3609 43.148 16.7529 43.148ZM22.6527 38.636C22.8687 38.26 23.1887 37.948 23.6127 37.7C24.0447 37.444 24.5447 37.316 25.1127 37.316C25.6967 37.316 26.2247 37.456 26.6967 37.736C27.1767 38.016 27.5527 38.412 27.8247 38.924C28.0967 39.428 28.2327 40.016 28.2327 40.688C28.2327 41.352 28.0967 41.944 27.8247 42.464C27.5527 42.984 27.1767 43.388 26.6967 43.676C26.2247 43.964 25.6967 44.108 25.1127 44.108C24.5527 44.108 24.0567 43.984 23.6247 43.736C23.2007 43.48 22.8767 43.164 22.6527 42.788V47.12H21.5607V37.424H22.6527V38.636ZM27.1167 40.688C27.1167 40.192 27.0167 39.76 26.8167 39.392C26.6167 39.024 26.3447 38.744 26.0007 38.552C25.6647 38.36 25.2927 38.264 24.8847 38.264C24.4847 38.264 24.1127 38.364 23.7687 38.564C23.4327 38.756 23.1607 39.04 22.9527 39.416C22.7527 39.784 22.6527 40.212 22.6527 40.7C22.6527 41.196 22.7527 41.632 22.9527 42.008C23.1607 42.376 23.4327 42.66 23.7687 42.86C24.1127 43.052 24.4847 43.148 24.8847 43.148C25.2927 43.148 25.6647 43.052 26.0007 42.86C26.3447 42.66 26.6167 42.376 26.8167 42.008C27.0167 41.632 27.1167 41.192 27.1167 40.688ZM36.6613 44.084C35.8853 44.084 35.1773 43.904 34.5373 43.544C33.8973 43.176 33.3893 42.668 33.0133 42.02C32.6453 41.364 32.4613 40.628 32.4613 39.812C32.4613 38.996 32.6453 38.264 33.0133 37.616C33.3893 36.96 33.8973 36.452 34.5373 36.092C35.1773 35.724 35.8853 35.54 36.6613 35.54C37.4453 35.54 38.1573 35.724 38.7973 36.092C39.4373 36.452 39.9413 36.956 40.3093 37.604C40.6773 38.252 40.8613 38.988 40.8613 39.812C40.8613 40.636 40.6773 41.372 40.3093 42.02C39.9413 42.668 39.4373 43.176 38.7973 43.544C38.1573 43.904 37.4453 44.084 36.6613 44.084ZM36.6613 43.136C37.2453 43.136 37.7693 43 38.2333 42.728C38.7053 42.456 39.0733 42.068 39.3373 41.564C39.6093 41.06 39.7453 40.476 39.7453 39.812C39.7453 39.14 39.6093 38.556 39.3373 38.06C39.0733 37.556 38.7093 37.168 38.2453 36.896C37.7813 36.624 37.2533 36.488 36.6613 36.488C36.0693 36.488 35.5413 36.624 35.0773 36.896C34.6133 37.168 34.2453 37.556 33.9733 38.06C33.7093 38.556 33.5773 39.14 33.5773 39.812C33.5773 40.476 33.7093 41.06 33.9733 41.564C34.2453 42.068 34.6133 42.456 35.0773 42.728C35.5493 43 36.0773 43.136 36.6613 43.136ZM44.9789 38.324H43.5989V44H42.5069V38.324H41.6549V37.424H42.5069V36.956C42.5069 36.22 42.6949 35.684 43.0709 35.348C43.4549 35.004 44.0669 34.832 44.9069 34.832V35.744C44.4269 35.744 44.0869 35.84 43.8869 36.032C43.6949 36.216 43.5989 36.524 43.5989 36.956V37.424H44.9789V38.324ZM48.9281 38.324H47.5481V44H46.4561V38.324H45.6041V37.424H46.4561V36.956C46.4561 36.22 46.6441 35.684 47.0201 35.348C47.4041 35.004 48.0161 34.832 48.8561 34.832V35.744C48.3761 35.744 48.0361 35.84 47.8361 36.032C47.6441 36.216 47.5481 36.524 47.5481 36.956V37.424H48.9281V38.324Z" fill="#86C8BC"/>
</svg>
