<svg width="51" height="48" viewBox="0 0 51 48" fill="none" xmlns="http://www.w3.org/2000/svg">
<path d="M13.3652 14.2806L13.2187 14.4271V14.6342V18.5758V18.7829L13.3651 18.9293L16.453 22.0172C16.8097 22.3739 17.0444 22.8295 17.1243 23.3237L17.1247 23.3264L18.045 28.8299C18.045 28.8299 18.045 28.83 18.0451 28.8301C18.175 29.6108 17.645 30.3524 16.8636 30.4826C16.0829 30.6127 15.3412 30.0827 15.2109 29.3013C15.2109 29.3013 15.2109 29.3012 15.2109 29.3012L14.3451 24.1003L14.3188 23.9422L14.2054 23.8289L9.39802 19.0214C8.76462 18.3881 8.40618 17.5281 8.40618 16.6322V11.298C8.40618 9.61247 9.76865 8.25 11.4542 8.25C12.7459 8.25 13.9465 8.89278 14.6653 9.96535C14.6654 9.9655 14.6655 9.96565 14.6656 9.96581L17.5349 14.2697L17.6091 14.3811L17.7291 14.4405L18.3406 14.7432L19.0624 15.1006V14.2951V9.6875C19.0624 8.89196 19.7044 8.25 20.4999 8.25H28.2499C29.0455 8.25 29.6874 8.89196 29.6874 9.6875V14.3012V15.1066L30.4093 14.7493L31.0208 14.4465L31.1409 14.3871L31.2152 14.2755L34.0851 9.96458L34.0852 9.96437C34.7972 8.89376 36.0027 8.25 37.2956 8.25C38.9812 8.25 40.3437 9.61247 40.3437 11.298V16.6322C40.3437 17.5301 39.9899 18.3895 39.3579 19.0214L34.5505 23.8289L34.4371 23.9422L34.4108 24.1003L33.545 29.3012C33.545 29.3012 33.545 29.3013 33.545 29.3013C33.4147 30.0827 32.6731 30.6127 31.8923 30.4826C31.1109 30.3524 30.5809 29.6108 30.7109 28.8301C30.7109 28.83 30.7109 28.8299 30.7109 28.8299L31.6312 23.3264L31.6316 23.3237C31.7115 22.8295 31.9462 22.3739 32.3029 22.0172L35.3908 18.9293L35.5372 18.7829V18.5758V14.6342V12.9828L34.6212 14.3568L33.4708 16.0824L33.469 16.0852C33.2403 16.4332 32.9213 16.7129 32.5455 16.8983L32.5431 16.8995L28.9345 18.7038L28.9272 18.7074L28.92 18.7113C28.8191 18.766 28.712 18.8052 28.5895 18.8324L28.5895 18.8324L28.5855 18.8333C28.465 18.8611 28.3461 18.8734 28.2389 18.8693L28.2293 18.8689H28.2197H20.5423H20.5323L20.5223 18.8693C20.4238 18.8733 20.3148 18.8619 20.188 18.8366C20.0614 18.8103 19.9469 18.7674 19.8421 18.7087L19.832 18.703L19.8217 18.6979L16.2192 16.8936L16.2165 16.8922C15.8465 16.7097 15.5296 16.4257 15.2897 16.0742C15.2893 16.0736 15.2888 16.0729 15.2884 16.0722L14.1408 14.3508L13.8025 13.8433L13.3712 14.2745L13.3652 14.2806ZM5.60304 28.5287L5.60343 28.5277L8.21595 21.9964L10.4255 24.206L8.27183 29.5903C8.27176 29.5905 8.27169 29.5906 8.27162 29.5908C7.97418 30.3291 7.13838 30.6865 6.40359 30.3908C5.6639 30.0932 5.30768 29.2626 5.60304 28.5287ZM38.3243 24.212L40.5356 22.0007L43.1464 28.5277L43.1468 28.5287C43.4426 29.2636 43.0849 30.0996 42.3463 30.3969C41.6116 30.6926 40.7759 30.3352 40.4784 29.5972C40.4783 29.5969 40.4781 29.5966 40.478 29.5963L38.3243 24.212ZM10.3437 2.90625C10.3437 2.26807 10.5972 1.65603 11.0485 1.20477C11.4997 0.753515 12.1118 0.5 12.7499 0.5C13.3881 0.5 14.0001 0.753515 14.4514 1.20477C14.9027 1.65603 15.1562 2.26807 15.1562 2.90625C15.1562 3.54443 14.9027 4.15647 14.4514 4.60773C14.0001 5.05898 13.3881 5.3125 12.7499 5.3125C12.1118 5.3125 11.4997 5.05898 11.0485 4.60773C10.5972 4.15647 10.3437 3.54443 10.3437 2.90625ZM35.9999 0.5C36.6381 0.5 37.2501 0.753515 37.7014 1.20477C38.1527 1.65603 38.4062 2.26807 38.4062 2.90625C38.4062 3.54443 38.1527 4.15647 37.7014 4.60773C37.2501 5.05899 36.6381 5.3125 35.9999 5.3125C35.3618 5.3125 34.7497 5.05899 34.2985 4.60773C33.8472 4.15647 33.5937 3.54443 33.5937 2.90625C33.5937 2.26807 33.8472 1.65603 34.2985 1.20477C34.7497 0.753515 35.3618 0.5 35.9999 0.5Z" fill="white" stroke="#A8A8A8"/>
<path d="M3.528 35.636C4.44 35.636 5.228 35.808 5.892 36.152C6.564 36.488 7.076 36.972 7.428 37.604C7.788 38.236 7.968 38.98 7.968 39.836C7.968 40.692 7.788 41.436 7.428 42.068C7.076 42.692 6.564 43.172 5.892 43.508C5.228 43.836 4.44 44 3.528 44H0.924V35.636H3.528ZM3.528 43.1C4.608 43.1 5.432 42.816 6 42.248C6.568 41.672 6.852 40.868 6.852 39.836C6.852 38.796 6.564 37.984 5.988 37.4C5.42 36.816 4.6 36.524 3.528 36.524H2.016V43.1H3.528ZM10.5004 38.492C10.6924 38.116 10.9644 37.824 11.3164 37.616C11.6764 37.408 12.1124 37.304 12.6244 37.304V38.432H12.3364C11.1124 38.432 10.5004 39.096 10.5004 40.424V44H9.40838V37.424H10.5004V38.492ZM16.7529 44.108C16.1369 44.108 15.5769 43.968 15.0729 43.688C14.5769 43.408 14.1849 43.012 13.8969 42.5C13.6169 41.98 13.4769 41.38 13.4769 40.7C13.4769 40.028 13.6209 39.436 13.9089 38.924C14.2049 38.404 14.6049 38.008 15.1089 37.736C15.6129 37.456 16.1769 37.316 16.8009 37.316C17.4249 37.316 17.9889 37.456 18.4929 37.736C18.9969 38.008 19.3929 38.4 19.6809 38.912C19.9769 39.424 20.1249 40.02 20.1249 40.7C20.1249 41.38 19.9729 41.98 19.6689 42.5C19.3729 43.012 18.9689 43.408 18.4569 43.688C17.9449 43.968 17.3769 44.108 16.7529 44.108ZM16.7529 43.148C17.1449 43.148 17.5129 43.056 17.8569 42.872C18.2009 42.688 18.4769 42.412 18.6849 42.044C18.9009 41.676 19.0089 41.228 19.0089 40.7C19.0089 40.172 18.9049 39.724 18.6969 39.356C18.4889 38.988 18.2169 38.716 17.8809 38.54C17.5449 38.356 17.1809 38.264 16.7889 38.264C16.3889 38.264 16.0209 38.356 15.6849 38.54C15.3569 38.716 15.0929 38.988 14.8929 39.356C14.6929 39.724 14.5929 40.172 14.5929 40.7C14.5929 41.236 14.6889 41.688 14.8809 42.056C15.0809 42.424 15.3449 42.7 15.6729 42.884C16.0009 43.06 16.3609 43.148 16.7529 43.148ZM22.6527 38.636C22.8687 38.26 23.1887 37.948 23.6127 37.7C24.0447 37.444 24.5447 37.316 25.1127 37.316C25.6967 37.316 26.2247 37.456 26.6967 37.736C27.1767 38.016 27.5527 38.412 27.8247 38.924C28.0967 39.428 28.2327 40.016 28.2327 40.688C28.2327 41.352 28.0967 41.944 27.8247 42.464C27.5527 42.984 27.1767 43.388 26.6967 43.676C26.2247 43.964 25.6967 44.108 25.1127 44.108C24.5527 44.108 24.0567 43.984 23.6247 43.736C23.2007 43.48 22.8767 43.164 22.6527 42.788V47.12H21.5607V37.424H22.6527V38.636ZM27.1167 40.688C27.1167 40.192 27.0167 39.76 26.8167 39.392C26.6167 39.024 26.3447 38.744 26.0007 38.552C25.6647 38.36 25.2927 38.264 24.8847 38.264C24.4847 38.264 24.1127 38.364 23.7687 38.564C23.4327 38.756 23.1607 39.04 22.9527 39.416C22.7527 39.784 22.6527 40.212 22.6527 40.7C22.6527 41.196 22.7527 41.632 22.9527 42.008C23.1607 42.376 23.4327 42.66 23.7687 42.86C24.1127 43.052 24.4847 43.148 24.8847 43.148C25.2927 43.148 25.6647 43.052 26.0007 42.86C26.3447 42.66 26.6167 42.376 26.8167 42.008C27.0167 41.632 27.1167 41.192 27.1167 40.688ZM36.6613 44.084C35.8853 44.084 35.1773 43.904 34.5373 43.544C33.8973 43.176 33.3893 42.668 33.0133 42.02C32.6453 41.364 32.4613 40.628 32.4613 39.812C32.4613 38.996 32.6453 38.264 33.0133 37.616C33.3893 36.96 33.8973 36.452 34.5373 36.092C35.1773 35.724 35.8853 35.54 36.6613 35.54C37.4453 35.54 38.1573 35.724 38.7973 36.092C39.4373 36.452 39.9413 36.956 40.3093 37.604C40.6773 38.252 40.8613 38.988 40.8613 39.812C40.8613 40.636 40.6773 41.372 40.3093 42.02C39.9413 42.668 39.4373 43.176 38.7973 43.544C38.1573 43.904 37.4453 44.084 36.6613 44.084ZM36.6613 43.136C37.2453 43.136 37.7693 43 38.2333 42.728C38.7053 42.456 39.0733 42.068 39.3373 41.564C39.6093 41.06 39.7453 40.476 39.7453 39.812C39.7453 39.14 39.6093 38.556 39.3373 38.06C39.0733 37.556 38.7093 37.168 38.2453 36.896C37.7813 36.624 37.2533 36.488 36.6613 36.488C36.0693 36.488 35.5413 36.624 35.0773 36.896C34.6133 37.168 34.2453 37.556 33.9733 38.06C33.7093 38.556 33.5773 39.14 33.5773 39.812C33.5773 40.476 33.7093 41.06 33.9733 41.564C34.2453 42.068 34.6133 42.456 35.0773 42.728C35.5493 43 36.0773 43.136 36.6613 43.136ZM44.9789 38.324H43.5989V44H42.5069V38.324H41.6549V37.424H42.5069V36.956C42.5069 36.22 42.6949 35.684 43.0709 35.348C43.4549 35.004 44.0669 34.832 44.9069 34.832V35.744C44.4269 35.744 44.0869 35.84 43.8869 36.032C43.6949 36.216 43.5989 36.524 43.5989 36.956V37.424H44.9789V38.324ZM48.9281 38.324H47.5481V44H46.4561V38.324H45.6041V37.424H46.4561V36.956C46.4561 36.22 46.6441 35.684 47.0201 35.348C47.4041 35.004 48.0161 34.832 48.8561 34.832V35.744C48.3761 35.744 48.0361 35.84 47.8361 36.032C47.6441 36.216 47.5481 36.524 47.5481 36.956V37.424H48.9281V38.324Z" fill="#A8A8A8"/>
</svg>
