<svg width="37" height="44" viewBox="0 0 37 44" fill="none" xmlns="http://www.w3.org/2000/svg">
<path d="M7 23.25V7.75L18.6667 0L30.3333 7.75V23.25H21.5833V14.2083H15.75V23.25H7Z" fill="#86C8BC"/>
<path d="M7.368 32.636V41H6.276V37.208H2.016V41H0.924V32.636H2.016V36.308H6.276V32.636H7.368ZM12.1006 41.108C11.4846 41.108 10.9246 40.968 10.4206 40.688C9.92459 40.408 9.53259 40.012 9.24459 39.5C8.96459 38.98 8.82459 38.38 8.82459 37.7C8.82459 37.028 8.96859 36.436 9.25659 35.924C9.55259 35.404 9.95259 35.008 10.4566 34.736C10.9606 34.456 11.5246 34.316 12.1486 34.316C12.7726 34.316 13.3366 34.456 13.8406 34.736C14.3446 35.008 14.7406 35.4 15.0286 35.912C15.3246 36.424 15.4726 37.02 15.4726 37.7C15.4726 38.38 15.3206 38.98 15.0166 39.5C14.7206 40.012 14.3166 40.408 13.8046 40.688C13.2926 40.968 12.7246 41.108 12.1006 41.108ZM12.1006 40.148C12.4926 40.148 12.8606 40.056 13.2046 39.872C13.5486 39.688 13.8246 39.412 14.0326 39.044C14.2486 38.676 14.3566 38.228 14.3566 37.7C14.3566 37.172 14.2526 36.724 14.0446 36.356C13.8366 35.988 13.5646 35.716 13.2286 35.54C12.8926 35.356 12.5286 35.264 12.1366 35.264C11.7366 35.264 11.3686 35.356 11.0326 35.54C10.7046 35.716 10.4406 35.988 10.2406 36.356C10.0406 36.724 9.94059 37.172 9.94059 37.7C9.94059 38.236 10.0366 38.688 10.2286 39.056C10.4286 39.424 10.6926 39.7 11.0206 39.884C11.3486 40.06 11.7086 40.148 12.1006 40.148ZM24.8164 34.304C25.3284 34.304 25.7844 34.412 26.1844 34.628C26.5844 34.836 26.9004 35.152 27.1324 35.576C27.3644 36 27.4804 36.516 27.4804 37.124V41H26.4004V37.28C26.4004 36.624 26.2364 36.124 25.9084 35.78C25.5884 35.428 25.1524 35.252 24.6004 35.252C24.0324 35.252 23.5804 35.436 23.2444 35.804C22.9084 36.164 22.7404 36.688 22.7404 37.376V41H21.6604V37.28C21.6604 36.624 21.4964 36.124 21.1684 35.78C20.8484 35.428 20.4124 35.252 19.8604 35.252C19.2924 35.252 18.8404 35.436 18.5044 35.804C18.1684 36.164 18.0004 36.688 18.0004 37.376V41H16.9084V34.424H18.0004V35.372C18.2164 35.028 18.5044 34.764 18.8644 34.58C19.2324 34.396 19.6364 34.304 20.0764 34.304C20.6284 34.304 21.1164 34.428 21.5404 34.676C21.9644 34.924 22.2804 35.288 22.4884 35.768C22.6724 35.304 22.9764 34.944 23.4004 34.688C23.8244 34.432 24.2964 34.304 24.8164 34.304ZM35.2717 37.46C35.2717 37.668 35.2597 37.888 35.2357 38.12H29.9797C30.0197 38.768 30.2397 39.276 30.6397 39.644C31.0477 40.004 31.5397 40.184 32.1157 40.184C32.5877 40.184 32.9797 40.076 33.2917 39.86C33.6117 39.636 33.8357 39.34 33.9637 38.972H35.1397C34.9637 39.604 34.6117 40.12 34.0837 40.52C33.5557 40.912 32.8997 41.108 32.1157 41.108C31.4917 41.108 30.9317 40.968 30.4357 40.688C29.9477 40.408 29.5637 40.012 29.2837 39.5C29.0037 38.98 28.8637 38.38 28.8637 37.7C28.8637 37.02 28.9997 36.424 29.2717 35.912C29.5437 35.4 29.9237 35.008 30.4117 34.736C30.9077 34.456 31.4757 34.316 32.1157 34.316C32.7397 34.316 33.2917 34.452 33.7717 34.724C34.2517 34.996 34.6197 35.372 34.8757 35.852C35.1397 36.324 35.2717 36.86 35.2717 37.46ZM34.1437 37.232C34.1437 36.816 34.0517 36.46 33.8677 36.164C33.6837 35.86 33.4317 35.632 33.1117 35.48C32.7997 35.32 32.4517 35.24 32.0677 35.24C31.5157 35.24 31.0437 35.416 30.6517 35.768C30.2677 36.12 30.0477 36.608 29.9917 37.232H34.1437Z" fill="#86C8BC"/>
</svg>
