<svg width="158" height="158" viewBox="0 0 158 158" fill="none" xmlns="http://www.w3.org/2000/svg">
<g filter="url(#filter0_d_211_34)">
<circle cx="79" cy="79" r="75" fill="white"/>
<circle cx="79" cy="79" r="74.5" stroke="#A8A8A8"/>
</g>
<path d="M111.946 54.8036L103.196 46.0536C102.623 45.4846 101.859 45.1474 101.052 45.1065C100.245 45.0656 99.4512 45.324 98.8229 45.8321C98.1945 46.3402 97.7758 47.0623 97.6469 47.86C97.5179 48.6577 97.6879 49.475 98.1242 50.1551L84.1953 60.6168L73.9878 62.6567C73.3524 62.7846 72.7685 63.0965 72.3089 63.5536L49.5234 86.3364C48.8123 87.0473 48.2483 87.8914 47.8635 88.8203C47.4787 89.7493 47.2806 90.7449 47.2806 91.7504C47.2806 92.7559 47.4787 93.7516 47.8635 94.6805C48.2483 95.6095 48.8123 96.4535 49.5234 97.1645L60.8355 108.477C61.5464 109.188 62.3905 109.752 63.3195 110.136C64.2484 110.521 65.2441 110.719 66.2496 110.719C67.2551 110.719 68.2507 110.521 69.1797 110.136C70.1086 109.752 70.9527 109.188 71.6636 108.477L94.4464 85.6965C94.9035 85.2369 95.2154 84.6531 95.3433 84.0176L97.3831 73.8047L107.837 59.8594C108.517 60.2957 109.334 60.4657 110.132 60.3367C110.93 60.2078 111.652 59.789 112.16 59.1607C112.668 58.5323 112.926 57.7386 112.885 56.9316C112.844 56.1245 112.507 55.361 111.938 54.7872L111.946 54.8036ZM74.6249 96.2266L61.7734 83.375L70.2499 74.8985L83.1015 87.75L74.6249 96.2266ZM66.2496 104.156C66.1059 104.156 65.9636 104.128 65.8308 104.073C65.698 104.018 65.5774 103.938 65.4757 103.836L54.1636 92.5243C54.0619 92.4227 53.9812 92.3021 53.9262 92.1693C53.8712 92.0365 53.8428 91.8942 53.8428 91.7504C53.8428 91.6067 53.8712 91.4644 53.9262 91.3316C53.9812 91.1988 54.0619 91.0782 54.1636 90.9766L57.1249 88.0235L69.9765 100.875L67.0234 103.836C66.9217 103.938 66.8011 104.018 66.6683 104.073C66.5355 104.128 66.3932 104.156 66.2496 104.156ZM91.6792 70.4688C91.3848 70.861 91.1821 71.3141 91.0859 71.795L89.1171 81.7563L87.7499 83.1016L74.8984 70.25L76.2656 68.8829L86.2269 66.8922C86.7077 66.796 87.1609 66.5933 87.5531 66.2989L102.775 54.8801L103.128 55.2329L91.6792 70.4688Z" fill="#86C8BC"/>
<defs>
<filter id="filter0_d_211_34" x="0" y="0" width="158" height="158" filterUnits="userSpaceOnUse" color-interpolation-filters="sRGB">
<feFlood flood-opacity="0" result="BackgroundImageFix"/>
<feColorMatrix in="SourceAlpha" type="matrix" values="0 0 0 0 0 0 0 0 0 0 0 0 0 0 0 0 0 0 127 0" result="hardAlpha"/>
<feOffset/>
<feGaussianBlur stdDeviation="2"/>
<feComposite in2="hardAlpha" operator="out"/>
<feColorMatrix type="matrix" values="0 0 0 0 0 0 0 0 0 0 0 0 0 0 0 0 0 0 0.25 0"/>
<feBlend mode="normal" in2="BackgroundImageFix" result="effect1_dropShadow_211_34"/>
<feBlend mode="normal" in="SourceGraphic" in2="effect1_dropShadow_211_34" result="shape"/>
</filter>
</defs>
</svg>
