<svg width="158" height="198" viewBox="0 0 158 198" fill="none" xmlns="http://www.w3.org/2000/svg">
<g filter="url(#filter0_d_205_71)">
<rect x="4" y="4" width="150" height="190" rx="10" fill="white"/>
<rect x="4.5" y="4.5" width="149" height="189" rx="9.5" stroke="#A8A8A8"/>
</g>
<path d="M81.9167 74.25V58.2083L97.9584 74.25M61.5 53.8333C58.2625 53.8333 55.6667 56.4291 55.6667 59.6666V106.333C55.6667 107.88 56.2813 109.364 57.3752 110.458C58.4692 111.552 59.9529 112.167 61.5 112.167H96.5C98.0471 112.167 99.5308 111.552 100.625 110.458C101.719 109.364 102.333 107.88 102.333 106.333V71.3333L84.8334 53.8333H61.5Z" fill="#86C8BC"/>
<path d="M54.38 166L49.66 159.8V166H46.24V151.96H49.66V158.12L54.34 151.96H58.36L52.92 158.84L58.56 166H54.38ZM70.7053 160.24C70.7053 160.56 70.6853 160.893 70.6453 161.24H62.9053C62.9586 161.933 63.1786 162.467 63.5653 162.84C63.9653 163.2 64.452 163.38 65.0253 163.38C65.8786 163.38 66.472 163.02 66.8053 162.3H70.4453C70.2586 163.033 69.9186 163.693 69.4253 164.28C68.9453 164.867 68.3386 165.327 67.6053 165.66C66.872 165.993 66.052 166.16 65.1453 166.16C64.052 166.16 63.0786 165.927 62.2253 165.46C61.372 164.993 60.7053 164.327 60.2253 163.46C59.7453 162.593 59.5053 161.58 59.5053 160.42C59.5053 159.26 59.7386 158.247 60.2053 157.38C60.6853 156.513 61.352 155.847 62.2053 155.38C63.0586 154.913 64.0386 154.68 65.1453 154.68C66.2253 154.68 67.1853 154.907 68.0253 155.36C68.8653 155.813 69.5186 156.46 69.9853 157.3C70.4653 158.14 70.7053 159.12 70.7053 160.24ZM67.2053 159.34C67.2053 158.753 67.0053 158.287 66.6053 157.94C66.2053 157.593 65.7053 157.42 65.1053 157.42C64.532 157.42 64.0453 157.587 63.6453 157.92C63.2586 158.253 63.0186 158.727 62.9253 159.34H67.2053ZM75.9295 156.7C76.3295 156.087 76.8295 155.607 77.4295 155.26C78.0295 154.9 78.6962 154.72 79.4295 154.72V158.34H78.4895C77.6362 158.34 76.9962 158.527 76.5695 158.9C76.1429 159.26 75.9295 159.9 75.9295 160.82V166H72.5095V154.84H75.9295V156.7ZM87.2842 163.1V166H85.5442C84.3042 166 83.3376 165.7 82.6442 165.1C81.9509 164.487 81.6042 163.493 81.6042 162.12V157.68H80.2442V154.84H81.6042V152.12H85.0242V154.84H87.2642V157.68H85.0242V162.16C85.0242 162.493 85.1042 162.733 85.2642 162.88C85.4242 163.027 85.6909 163.1 86.0642 163.1H87.2842ZM88.5092 160.4C88.5092 159.253 88.7226 158.247 89.1492 157.38C89.5892 156.513 90.1826 155.847 90.9292 155.38C91.6759 154.913 92.5092 154.68 93.4292 154.68C94.2159 154.68 94.9026 154.84 95.4892 155.16C96.0892 155.48 96.5492 155.9 96.8692 156.42V154.84H100.289V166H96.8692V164.42C96.5359 164.94 96.0692 165.36 95.4692 165.68C94.8826 166 94.1959 166.16 93.4092 166.16C92.5026 166.16 91.6759 165.927 90.9292 165.46C90.1826 164.98 89.5892 164.307 89.1492 163.44C88.7226 162.56 88.5092 161.547 88.5092 160.4ZM96.8692 160.42C96.8692 159.567 96.6292 158.893 96.1492 158.4C95.6826 157.907 95.1092 157.66 94.4292 157.66C93.7492 157.66 93.1692 157.907 92.6892 158.4C92.2226 158.88 91.9892 159.547 91.9892 160.4C91.9892 161.253 92.2226 161.933 92.6892 162.44C93.1692 162.933 93.7492 163.18 94.4292 163.18C95.1092 163.18 95.6826 162.933 96.1492 162.44C96.6292 161.947 96.8692 161.273 96.8692 160.42ZM107.303 166.16C106.33 166.16 105.463 165.993 104.703 165.66C103.943 165.327 103.343 164.873 102.903 164.3C102.463 163.713 102.217 163.06 102.163 162.34H105.543C105.583 162.727 105.763 163.04 106.083 163.28C106.403 163.52 106.797 163.64 107.263 163.64C107.69 163.64 108.017 163.56 108.243 163.4C108.483 163.227 108.603 163.007 108.603 162.74C108.603 162.42 108.437 162.187 108.103 162.04C107.77 161.88 107.23 161.707 106.483 161.52C105.683 161.333 105.017 161.14 104.483 160.94C103.95 160.727 103.49 160.4 103.103 159.96C102.717 159.507 102.523 158.9 102.523 158.14C102.523 157.5 102.697 156.92 103.043 156.4C103.403 155.867 103.923 155.447 104.603 155.14C105.297 154.833 106.117 154.68 107.063 154.68C108.463 154.68 109.563 155.027 110.363 155.72C111.177 156.413 111.643 157.333 111.763 158.48H108.603C108.55 158.093 108.377 157.787 108.083 157.56C107.803 157.333 107.43 157.22 106.963 157.22C106.563 157.22 106.257 157.3 106.043 157.46C105.83 157.607 105.723 157.813 105.723 158.08C105.723 158.4 105.89 158.64 106.223 158.8C106.57 158.96 107.103 159.12 107.823 159.28C108.65 159.493 109.323 159.707 109.843 159.92C110.363 160.12 110.817 160.453 111.203 160.92C111.603 161.373 111.81 161.987 111.823 162.76C111.823 163.413 111.637 164 111.263 164.52C110.903 165.027 110.377 165.427 109.683 165.72C109.003 166.013 108.21 166.16 107.303 166.16Z" fill="#252525"/>
<defs>
<filter id="filter0_d_205_71" x="0" y="0" width="158" height="198" filterUnits="userSpaceOnUse" color-interpolation-filters="sRGB">
<feFlood flood-opacity="0" result="BackgroundImageFix"/>
<feColorMatrix in="SourceAlpha" type="matrix" values="0 0 0 0 0 0 0 0 0 0 0 0 0 0 0 0 0 0 127 0" result="hardAlpha"/>
<feOffset/>
<feGaussianBlur stdDeviation="2"/>
<feComposite in2="hardAlpha" operator="out"/>
<feColorMatrix type="matrix" values="0 0 0 0 0 0 0 0 0 0 0 0 0 0 0 0 0 0 0.25 0"/>
<feBlend mode="normal" in2="BackgroundImageFix" result="effect1_dropShadow_205_71"/>
<feBlend mode="normal" in="SourceGraphic" in2="effect1_dropShadow_205_71" result="shape"/>
</filter>
</defs>
</svg>
