<svg width="170" height="21" viewBox="0 0 170 21" fill="none" xmlns="http://www.w3.org/2000/svg">
<path d="M34.566 15L31.262 10.66V15H28.868V5.172H31.262V9.484L34.538 5.172H37.352L33.544 9.988L37.492 15H34.566ZM42.1857 15.112C41.4204 15.112 40.7297 14.9487 40.1137 14.622C39.5071 14.2953 39.0264 13.8287 38.6717 13.222C38.3264 12.6153 38.1537 11.906 38.1537 11.094C38.1537 10.2913 38.3311 9.58667 38.6857 8.98C39.0404 8.364 39.5257 7.89267 40.1417 7.566C40.7577 7.23933 41.4484 7.076 42.2137 7.076C42.9791 7.076 43.6697 7.23933 44.2857 7.566C44.9017 7.89267 45.3871 8.364 45.7417 8.98C46.0964 9.58667 46.2737 10.2913 46.2737 11.094C46.2737 11.8967 46.0917 12.606 45.7277 13.222C45.3731 13.8287 44.8831 14.2953 44.2577 14.622C43.6417 14.9487 42.9511 15.112 42.1857 15.112ZM42.1857 13.04C42.6431 13.04 43.0304 12.872 43.3477 12.536C43.6744 12.2 43.8377 11.7193 43.8377 11.094C43.8377 10.4687 43.6791 9.988 43.3617 9.652C43.0537 9.316 42.6711 9.148 42.2137 9.148C41.7471 9.148 41.3597 9.316 41.0517 9.652C40.7437 9.97867 40.5897 10.4593 40.5897 11.094C40.5897 11.7193 40.7391 12.2 41.0377 12.536C41.3457 12.872 41.7284 13.04 42.1857 13.04ZM52.3038 7.104C53.2184 7.104 53.9464 7.40267 54.4878 8C55.0384 8.588 55.3138 9.4 55.3138 10.436V15H52.9338V10.758C52.9338 10.2353 52.7984 9.82933 52.5278 9.54C52.2571 9.25067 51.8931 9.106 51.4358 9.106C50.9784 9.106 50.6144 9.25067 50.3438 9.54C50.0731 9.82933 49.9378 10.2353 49.9378 10.758V15H47.5438V7.188H49.9378V8.224C50.1804 7.87867 50.5071 7.608 50.9178 7.412C51.3284 7.20667 51.7904 7.104 52.3038 7.104ZM60.8974 9.176H59.6094V15H57.2154V9.176H56.3474V7.188H57.2154V6.964C57.2154 6.00267 57.4907 5.27467 58.0414 4.78C58.592 4.276 59.3994 4.024 60.4634 4.024C60.6407 4.024 60.7714 4.02867 60.8554 4.038V6.068C60.398 6.04 60.076 6.10533 59.8894 6.264C59.7027 6.42267 59.6094 6.70733 59.6094 7.118V7.188H60.8974V9.176ZM63.2263 6.376C62.8063 6.376 62.461 6.25467 62.1903 6.012C61.929 5.76 61.7983 5.452 61.7983 5.088C61.7983 4.71467 61.929 4.40667 62.1903 4.164C62.461 3.912 62.8063 3.786 63.2263 3.786C63.637 3.786 63.973 3.912 64.2343 4.164C64.505 4.40667 64.6403 4.71467 64.6403 5.088C64.6403 5.452 64.505 5.76 64.2343 6.012C63.973 6.25467 63.637 6.376 63.2263 6.376ZM64.4163 7.188V15H62.0223V7.188H64.4163ZM68.5452 8.49C68.8252 8.06067 69.1752 7.72467 69.5952 7.482C70.0152 7.23 70.4819 7.104 70.9952 7.104V9.638H70.3372C69.7399 9.638 69.2919 9.76867 68.9932 10.03C68.6945 10.282 68.5452 10.73 68.5452 11.374V15H66.1512V7.188H68.5452V8.49ZM82.1075 7.104C83.0782 7.104 83.8482 7.398 84.4175 7.986C84.9962 8.574 85.2855 9.39067 85.2855 10.436V15H82.9055V10.758C82.9055 10.254 82.7702 9.86667 82.4995 9.596C82.2382 9.316 81.8742 9.176 81.4075 9.176C80.9408 9.176 80.5722 9.316 80.3015 9.596C80.0402 9.86667 79.9095 10.254 79.9095 10.758V15H77.5295V10.758C77.5295 10.254 77.3942 9.86667 77.1235 9.596C76.8622 9.316 76.4982 9.176 76.0315 9.176C75.5648 9.176 75.1962 9.316 74.9255 9.596C74.6642 9.86667 74.5335 10.254 74.5335 10.758V15H72.1395V7.188H74.5335V8.168C74.7762 7.84133 75.0935 7.58467 75.4855 7.398C75.8775 7.202 76.3208 7.104 76.8155 7.104C77.4035 7.104 77.9262 7.23 78.3835 7.482C78.8502 7.734 79.2142 8.09333 79.4755 8.56C79.7462 8.13067 80.1148 7.78067 80.5815 7.51C81.0482 7.23933 81.5568 7.104 82.1075 7.104ZM86.4838 11.08C86.4838 10.2773 86.6331 9.57267 86.9318 8.966C87.2398 8.35933 87.6551 7.89267 88.1778 7.566C88.7005 7.23933 89.2838 7.076 89.9278 7.076C90.4785 7.076 90.9591 7.188 91.3698 7.412C91.7898 7.636 92.1118 7.93 92.3358 8.294V7.188H94.7298V15H92.3358V13.894C92.1025 14.258 91.7758 14.552 91.3558 14.776C90.9451 15 90.4645 15.112 89.9138 15.112C89.2791 15.112 88.7005 14.9487 88.1778 14.622C87.6551 14.286 87.2398 13.8147 86.9318 13.208C86.6331 12.592 86.4838 11.8827 86.4838 11.08ZM92.3358 11.094C92.3358 10.4967 92.1678 10.0253 91.8318 9.68C91.5051 9.33467 91.1038 9.162 90.6278 9.162C90.1518 9.162 89.7458 9.33467 89.4098 9.68C89.0831 10.016 88.9198 10.4827 88.9198 11.08C88.9198 11.6773 89.0831 12.1533 89.4098 12.508C89.7458 12.8533 90.1518 13.026 90.6278 13.026C91.1038 13.026 91.5051 12.8533 91.8318 12.508C92.1678 12.1627 92.3358 11.6913 92.3358 11.094ZM99.6398 15.112C98.9584 15.112 98.3518 14.9953 97.8198 14.762C97.2878 14.5287 96.8678 14.2113 96.5598 13.81C96.2518 13.3993 96.0791 12.942 96.0418 12.438H98.4078C98.4358 12.7087 98.5618 12.928 98.7858 13.096C99.0098 13.264 99.2851 13.348 99.6118 13.348C99.9104 13.348 100.139 13.292 100.298 13.18C100.466 13.0587 100.55 12.9047 100.55 12.718C100.55 12.494 100.433 12.3307 100.2 12.228C99.9664 12.116 99.5884 11.9947 99.0658 11.864C98.5058 11.7333 98.0391 11.598 97.6658 11.458C97.2924 11.3087 96.9704 11.08 96.6998 10.772C96.4291 10.4547 96.2938 10.03 96.2938 9.498C96.2938 9.05 96.4151 8.644 96.6578 8.28C96.9098 7.90667 97.2738 7.61267 97.7498 7.398C98.2351 7.18333 98.8091 7.076 99.4718 7.076C100.452 7.076 101.222 7.31867 101.782 7.804C102.351 8.28933 102.678 8.93333 102.762 9.736H100.55C100.512 9.46533 100.391 9.25067 100.186 9.092C99.9898 8.93333 99.7284 8.854 99.4018 8.854C99.1218 8.854 98.9071 8.91 98.7578 9.022C98.6084 9.12467 98.5338 9.26933 98.5338 9.456C98.5338 9.68 98.6504 9.848 98.8838 9.96C99.1264 10.072 99.4998 10.184 100.004 10.296C100.582 10.4453 101.054 10.5947 101.418 10.744C101.782 10.884 102.099 11.1173 102.37 11.444C102.65 11.7613 102.794 12.1907 102.804 12.732C102.804 13.1893 102.673 13.6 102.412 13.964C102.16 14.3187 101.791 14.5987 101.306 14.804C100.83 15.0093 100.274 15.112 99.6398 15.112ZM105.472 6.376C105.052 6.376 104.707 6.25467 104.436 6.012C104.175 5.76 104.044 5.452 104.044 5.088C104.044 4.71467 104.175 4.40667 104.436 4.164C104.707 3.912 105.052 3.786 105.472 3.786C105.883 3.786 106.219 3.912 106.48 4.164C106.751 4.40667 106.886 4.71467 106.886 5.088C106.886 5.452 106.751 5.76 106.48 6.012C106.219 6.25467 105.883 6.376 105.472 6.376ZM106.662 7.188V15H104.268V7.188H106.662ZM115.046 5.172C116.082 5.172 116.987 5.37733 117.762 5.788C118.537 6.19867 119.134 6.77733 119.554 7.524C119.983 8.26133 120.198 9.11533 120.198 10.086C120.198 11.0473 119.983 11.9013 119.554 12.648C119.134 13.3947 118.532 13.9733 117.748 14.384C116.973 14.7947 116.073 15 115.046 15H111.364V5.172H115.046ZM114.892 12.928C115.797 12.928 116.502 12.6807 117.006 12.186C117.51 11.6913 117.762 10.9913 117.762 10.086C117.762 9.18067 117.51 8.476 117.006 7.972C116.502 7.468 115.797 7.216 114.892 7.216H113.758V12.928H114.892ZM123.93 8.49C124.21 8.06067 124.56 7.72467 124.98 7.482C125.4 7.23 125.867 7.104 126.38 7.104V9.638H125.722C125.125 9.638 124.677 9.76867 124.378 10.03C124.079 10.282 123.93 10.73 123.93 11.374V15H121.536V7.188H123.93V8.49ZM131.08 15.112C130.315 15.112 129.624 14.9487 129.008 14.622C128.402 14.2953 127.921 13.8287 127.566 13.222C127.221 12.6153 127.048 11.906 127.048 11.094C127.048 10.2913 127.226 9.58667 127.58 8.98C127.935 8.364 128.42 7.89267 129.036 7.566C129.652 7.23933 130.343 7.076 131.108 7.076C131.874 7.076 132.564 7.23933 133.18 7.566C133.796 7.89267 134.282 8.364 134.636 8.98C134.991 9.58667 135.168 10.2913 135.168 11.094C135.168 11.8967 134.986 12.606 134.622 13.222C134.268 13.8287 133.778 14.2953 133.152 14.622C132.536 14.9487 131.846 15.112 131.08 15.112ZM131.08 13.04C131.538 13.04 131.925 12.872 132.242 12.536C132.569 12.2 132.732 11.7193 132.732 11.094C132.732 10.4687 132.574 9.988 132.256 9.652C131.948 9.316 131.566 9.148 131.108 9.148C130.642 9.148 130.254 9.316 129.946 9.652C129.638 9.97867 129.484 10.4593 129.484 11.094C129.484 11.7193 129.634 12.2 129.932 12.536C130.24 12.872 130.623 13.04 131.08 13.04ZM138.832 8.294C139.066 7.93 139.388 7.636 139.798 7.412C140.209 7.188 140.69 7.076 141.24 7.076C141.884 7.076 142.468 7.23933 142.99 7.566C143.513 7.89267 143.924 8.35933 144.222 8.966C144.53 9.57267 144.684 10.2773 144.684 11.08C144.684 11.8827 144.53 12.592 144.222 13.208C143.924 13.8147 143.513 14.286 142.99 14.622C142.468 14.9487 141.884 15.112 141.24 15.112C140.699 15.112 140.218 15 139.798 14.776C139.388 14.552 139.066 14.2627 138.832 13.908V18.724H136.438V7.188H138.832V8.294ZM142.248 11.08C142.248 10.4827 142.08 10.016 141.744 9.68C141.418 9.33467 141.012 9.162 140.526 9.162C140.05 9.162 139.644 9.33467 139.308 9.68C138.982 10.0253 138.818 10.4967 138.818 11.094C138.818 11.6913 138.982 12.1627 139.308 12.508C139.644 12.8533 140.05 13.026 140.526 13.026C141.002 13.026 141.408 12.8533 141.744 12.508C142.08 12.1533 142.248 11.6773 142.248 11.08ZM153.555 15.098C152.631 15.098 151.782 14.8833 151.007 14.454C150.242 14.0247 149.63 13.4273 149.173 12.662C148.725 11.8873 148.501 11.0193 148.501 10.058C148.501 9.09667 148.725 8.23333 149.173 7.468C149.63 6.70267 150.242 6.10533 151.007 5.676C151.782 5.24667 152.631 5.032 153.555 5.032C154.479 5.032 155.324 5.24667 156.089 5.676C156.864 6.10533 157.47 6.70267 157.909 7.468C158.357 8.23333 158.581 9.09667 158.581 10.058C158.581 11.0193 158.357 11.8873 157.909 12.662C157.461 13.4273 156.854 14.0247 156.089 14.454C155.324 14.8833 154.479 15.098 153.555 15.098ZM153.555 12.914C154.339 12.914 154.964 12.6527 155.431 12.13C155.907 11.6073 156.145 10.9167 156.145 10.058C156.145 9.19 155.907 8.49933 155.431 7.986C154.964 7.46333 154.339 7.202 153.555 7.202C152.762 7.202 152.127 7.45867 151.651 7.972C151.184 8.48533 150.951 9.18067 150.951 10.058C150.951 10.926 151.184 11.6213 151.651 12.144C152.127 12.6573 152.762 12.914 153.555 12.914ZM163.833 9.176H162.545V15H160.151V9.176H159.283V7.188H160.151V6.964C160.151 6.00267 160.426 5.27467 160.977 4.78C161.528 4.276 162.335 4.024 163.399 4.024C163.576 4.024 163.707 4.02867 163.791 4.038V6.068C163.334 6.04 163.012 6.10533 162.825 6.264C162.638 6.42267 162.545 6.70733 162.545 7.118V7.188H163.833V9.176ZM168.878 9.176H167.59V15H165.196V9.176H164.328V7.188H165.196V6.964C165.196 6.00267 165.471 5.27467 166.022 4.78C166.573 4.276 167.38 4.024 168.444 4.024C168.621 4.024 168.752 4.02867 168.836 4.038V6.068C168.379 6.04 168.057 6.10533 167.87 6.264C167.683 6.42267 167.59 6.70733 167.59 7.118V7.188H168.878V9.176Z" fill="#252525"/>
<path d="M2.5 11C2.5 6.85787 5.85787 3.5 10 3.5C14.1422 3.5 17.5 6.85787 17.5 11C17.5 15.1422 14.1422 18.5 10 18.5C5.85787 18.5 2.5 15.1422 2.5 11Z" stroke="#252525" stroke-width="2" stroke-linecap="round" stroke-linejoin="round"/>
<path d="M6.66663 11L9.16663 13.5L13.3333 9.33333" stroke="#252525" stroke-width="2" stroke-linecap="round" stroke-linejoin="round"/>
</svg>
