<svg width="158" height="198" viewBox="0 0 158 198" fill="none" xmlns="http://www.w3.org/2000/svg">
<g filter="url(#filter0_d_205_73)">
<rect x="4" y="4" width="150" height="190" rx="10" fill="white"/>
<rect x="4.5" y="4.5" width="149" height="189" rx="9.5" stroke="#A8A8A8"/>
</g>
<path d="M52.75 83C52.75 86.4472 53.429 89.8606 54.7482 93.0454C56.0673 96.2302 58.0009 99.124 60.4384 101.562C62.876 103.999 65.7698 105.933 68.9546 107.252C72.1394 108.571 75.5528 109.25 79 109.25C82.4472 109.25 85.8606 108.571 89.0454 107.252C92.2302 105.933 95.124 103.999 97.5616 101.562C99.9991 99.124 101.933 96.2302 103.252 93.0454C104.571 89.8606 105.25 86.4472 105.25 83C105.25 79.5528 104.571 76.1394 103.252 72.9546C101.933 69.7698 99.9991 66.876 97.5616 64.4384C95.124 62.0009 92.2302 60.0673 89.0454 58.7482C85.8606 57.429 82.4472 56.75 79 56.75C75.5528 56.75 72.1394 57.429 68.9546 58.7482C65.7698 60.0673 62.876 62.0009 60.4384 64.4384C58.0009 66.876 56.0673 69.7698 54.7482 72.9546C53.429 76.1394 52.75 79.5528 52.75 83Z" stroke="#86C8BC" stroke-width="5" stroke-linecap="round" stroke-linejoin="round"/>
<path d="M87.1667 74.25C86.6383 73.3334 85.8706 72.5778 84.9459 72.0641C84.0211 71.5503 82.974 71.2977 81.9167 71.3333H76.0833C74.5362 71.3333 73.0525 71.9479 71.9585 73.0418C70.8646 74.1358 70.25 75.6195 70.25 77.1666C70.25 78.7137 70.8646 80.1975 71.9585 81.2914C73.0525 82.3854 74.5362 83 76.0833 83H81.9167C83.4638 83 84.9475 83.6145 86.0415 84.7085C87.1354 85.8025 87.75 87.2862 87.75 88.8333C87.75 90.3804 87.1354 91.8641 86.0415 92.9581C84.9475 94.052 83.4638 94.6666 81.9167 94.6666H76.0833C75.026 94.7022 73.9789 94.4496 73.0541 93.9358C72.1294 93.4221 71.3617 92.6665 70.8333 91.75M79 68.4166V97.5833" stroke="#86C8BC" stroke-width="5" stroke-linecap="round" stroke-linejoin="round"/>
<path d="M47.66 163.36H52.14V166H44.24V151.96H47.66V163.36ZM58.8513 166.16C57.7579 166.16 56.7713 165.927 55.8913 165.46C55.0246 164.993 54.3379 164.327 53.8313 163.46C53.3379 162.593 53.0913 161.58 53.0913 160.42C53.0913 159.273 53.3446 158.267 53.8512 157.4C54.3579 156.52 55.0513 155.847 55.9313 155.38C56.8113 154.913 57.7979 154.68 58.8913 154.68C59.9846 154.68 60.9713 154.913 61.8513 155.38C62.7313 155.847 63.4246 156.52 63.9313 157.4C64.4379 158.267 64.6913 159.273 64.6913 160.42C64.6913 161.567 64.4313 162.58 63.9113 163.46C63.4046 164.327 62.7046 164.993 61.8113 165.46C60.9313 165.927 59.9446 166.16 58.8513 166.16ZM58.8513 163.2C59.5046 163.2 60.0579 162.96 60.5113 162.48C60.9779 162 61.2113 161.313 61.2113 160.42C61.2113 159.527 60.9846 158.84 60.5313 158.36C60.0913 157.88 59.5446 157.64 58.8913 157.64C58.2246 157.64 57.6713 157.88 57.2313 158.36C56.7913 158.827 56.5713 159.513 56.5713 160.42C56.5713 161.313 56.7846 162 57.2113 162.48C57.6513 162.96 58.1979 163.2 58.8513 163.2ZM70.7456 154.68C71.5323 154.68 72.219 154.84 72.8056 155.16C73.4056 155.48 73.8656 155.9 74.1856 156.42V154.84H77.6056V165.98C77.6056 167.007 77.399 167.933 76.9856 168.76C76.5856 169.6 75.9656 170.267 75.1256 170.76C74.299 171.253 73.2656 171.5 72.0256 171.5C70.3723 171.5 69.0323 171.107 68.0056 170.32C66.979 169.547 66.3923 168.493 66.2456 167.16H69.6256C69.7323 167.587 69.9856 167.92 70.3856 168.16C70.7856 168.413 71.279 168.54 71.8656 168.54C72.5723 168.54 73.1323 168.333 73.5456 167.92C73.9723 167.52 74.1856 166.873 74.1856 165.98V164.4C73.8523 164.92 73.3923 165.347 72.8056 165.68C72.219 166 71.5323 166.16 70.7456 166.16C69.8256 166.16 68.9923 165.927 68.2456 165.46C67.499 164.98 66.9056 164.307 66.4656 163.44C66.039 162.56 65.8256 161.547 65.8256 160.4C65.8256 159.253 66.039 158.247 66.4656 157.38C66.9056 156.513 67.499 155.847 68.2456 155.38C68.9923 154.913 69.8256 154.68 70.7456 154.68ZM74.1856 160.42C74.1856 159.567 73.9456 158.893 73.4656 158.4C72.999 157.907 72.4256 157.66 71.7456 157.66C71.0656 157.66 70.4856 157.907 70.0056 158.4C69.539 158.88 69.3056 159.547 69.3056 160.4C69.3056 161.253 69.539 161.933 70.0056 162.44C70.4856 162.933 71.0656 163.18 71.7456 163.18C72.4256 163.18 72.999 162.933 73.4656 162.44C73.9456 161.947 74.1856 161.273 74.1856 160.42ZM79.3998 160.4C79.3998 159.253 79.6132 158.247 80.0398 157.38C80.4798 156.513 81.0732 155.847 81.8198 155.38C82.5665 154.913 83.3998 154.68 84.3198 154.68C85.1065 154.68 85.7932 154.84 86.3798 155.16C86.9798 155.48 87.4398 155.9 87.7598 156.42V154.84H91.1798V166H87.7598V164.42C87.4265 164.94 86.9598 165.36 86.3598 165.68C85.7732 166 85.0865 166.16 84.2998 166.16C83.3932 166.16 82.5665 165.927 81.8198 165.46C81.0732 164.98 80.4798 164.307 80.0398 163.44C79.6132 162.56 79.3998 161.547 79.3998 160.4ZM87.7598 160.42C87.7598 159.567 87.5198 158.893 87.0398 158.4C86.5732 157.907 85.9998 157.66 85.3198 157.66C84.6398 157.66 84.0598 157.907 83.5798 158.4C83.1132 158.88 82.8798 159.547 82.8798 160.4C82.8798 161.253 83.1132 161.933 83.5798 162.44C84.0598 162.933 84.6398 163.18 85.3198 163.18C85.9998 163.18 86.5732 162.933 87.0398 162.44C87.5198 161.947 87.7598 161.273 87.7598 160.42ZM107.894 154.72C109.281 154.72 110.381 155.14 111.194 155.98C112.021 156.82 112.434 157.987 112.434 159.48V166H109.034V159.94C109.034 159.22 108.841 158.667 108.454 158.28C108.081 157.88 107.561 157.68 106.894 157.68C106.227 157.68 105.701 157.88 105.314 158.28C104.941 158.667 104.754 159.22 104.754 159.94V166H101.354V159.94C101.354 159.22 101.161 158.667 100.774 158.28C100.401 157.88 99.8807 157.68 99.2141 157.68C98.5474 157.68 98.0207 157.88 97.6341 158.28C97.2607 158.667 97.0741 159.22 97.0741 159.94V166H93.6541V154.84H97.0741V156.24C97.4207 155.773 97.8741 155.407 98.4341 155.14C98.9941 154.86 99.6274 154.72 100.334 154.72C101.174 154.72 101.921 154.9 102.574 155.26C103.241 155.62 103.761 156.133 104.134 156.8C104.521 156.187 105.047 155.687 105.714 155.3C106.381 154.913 107.107 154.72 107.894 154.72Z" fill="#252525"/>
<defs>
<filter id="filter0_d_205_73" x="0" y="0" width="158" height="198" filterUnits="userSpaceOnUse" color-interpolation-filters="sRGB">
<feFlood flood-opacity="0" result="BackgroundImageFix"/>
<feColorMatrix in="SourceAlpha" type="matrix" values="0 0 0 0 0 0 0 0 0 0 0 0 0 0 0 0 0 0 127 0" result="hardAlpha"/>
<feOffset/>
<feGaussianBlur stdDeviation="2"/>
<feComposite in2="hardAlpha" operator="out"/>
<feColorMatrix type="matrix" values="0 0 0 0 0 0 0 0 0 0 0 0 0 0 0 0 0 0 0.25 0"/>
<feBlend mode="normal" in2="BackgroundImageFix" result="effect1_dropShadow_205_73"/>
<feBlend mode="normal" in="SourceGraphic" in2="effect1_dropShadow_205_73" result="shape"/>
</filter>
</defs>
</svg>
