<svg width="33" height="47" viewBox="0 0 33 47" fill="none" xmlns="http://www.w3.org/2000/svg">
<path d="M7.5 44H6.408L2.016 37.34V44H0.924V35.624H2.016L6.408 42.272V35.624H7.5V44ZM15.3615 40.46C15.3615 40.668 15.3495 40.888 15.3255 41.12H10.0695C10.1095 41.768 10.3295 42.276 10.7295 42.644C11.1375 43.004 11.6295 43.184 12.2055 43.184C12.6775 43.184 13.0695 43.076 13.3815 42.86C13.7015 42.636 13.9255 42.34 14.0535 41.972H15.2295C15.0535 42.604 14.7015 43.12 14.1735 43.52C13.6455 43.912 12.9895 44.108 12.2055 44.108C11.5815 44.108 11.0215 43.968 10.5255 43.688C10.0375 43.408 9.6535 43.012 9.3735 42.5C9.0935 41.98 8.9535 41.38 8.9535 40.7C8.9535 40.02 9.0895 39.424 9.3615 38.912C9.6335 38.4 10.0135 38.008 10.5015 37.736C10.9975 37.456 11.5655 37.316 12.2055 37.316C12.8295 37.316 13.3815 37.452 13.8615 37.724C14.3415 37.996 14.7095 38.372 14.9655 38.852C15.2295 39.324 15.3615 39.86 15.3615 40.46ZM14.2335 40.232C14.2335 39.816 14.1415 39.46 13.9575 39.164C13.7735 38.86 13.5215 38.632 13.2015 38.48C12.8895 38.32 12.5415 38.24 12.1575 38.24C11.6055 38.24 11.1335 38.416 10.7415 38.768C10.3575 39.12 10.1375 39.608 10.0815 40.232H14.2335ZM25.5629 37.424L23.5109 44H22.3829L20.7989 38.78L19.2149 44H18.0869L16.0229 37.424H17.1389L18.6509 42.944L20.2829 37.424H21.3989L22.9949 42.956L24.4829 37.424H25.5629ZM28.9747 44.108C28.4707 44.108 28.0187 44.024 27.6187 43.856C27.2187 43.68 26.9027 43.44 26.6707 43.136C26.4387 42.824 26.3107 42.468 26.2867 42.068H27.4147C27.4467 42.396 27.5987 42.664 27.8707 42.872C28.1507 43.08 28.5147 43.184 28.9627 43.184C29.3787 43.184 29.7067 43.092 29.9467 42.908C30.1867 42.724 30.3067 42.492 30.3067 42.212C30.3067 41.924 30.1787 41.712 29.9227 41.576C29.6667 41.432 29.2707 41.292 28.7347 41.156C28.2467 41.028 27.8467 40.9 27.5347 40.772C27.2307 40.636 26.9667 40.44 26.7427 40.184C26.5267 39.92 26.4187 39.576 26.4187 39.152C26.4187 38.816 26.5187 38.508 26.7187 38.228C26.9187 37.948 27.2027 37.728 27.5707 37.568C27.9387 37.4 28.3587 37.316 28.8307 37.316C29.5587 37.316 30.1467 37.5 30.5947 37.868C31.0427 38.236 31.2827 38.74 31.3147 39.38H30.2227C30.1987 39.036 30.0587 38.76 29.8027 38.552C29.5547 38.344 29.2187 38.24 28.7947 38.24C28.4027 38.24 28.0907 38.324 27.8587 38.492C27.6267 38.66 27.5107 38.88 27.5107 39.152C27.5107 39.368 27.5787 39.548 27.7147 39.692C27.8587 39.828 28.0347 39.94 28.2427 40.028C28.4587 40.108 28.7547 40.2 29.1307 40.304C29.6027 40.432 29.9867 40.56 30.2827 40.688C30.5787 40.808 30.8307 40.992 31.0387 41.24C31.2547 41.488 31.3667 41.812 31.3747 42.212C31.3747 42.572 31.2747 42.896 31.0747 43.184C30.8747 43.472 30.5907 43.7 30.2227 43.868C29.8627 44.028 29.4467 44.108 28.9747 44.108Z" fill="#86C8BC"/>
<path d="M22 8.25H26.125C26.4897 8.25 26.8394 8.39487 27.0973 8.65273C27.3551 8.91059 27.5 9.26033 27.5 9.625V24.75C27.5 25.4793 27.2103 26.1788 26.6945 26.6945C26.1788 27.2103 25.4793 27.5 24.75 27.5M24.75 27.5C24.0207 27.5 23.3212 27.2103 22.8055 26.6945C22.2897 26.1788 22 25.4793 22 24.75V6.875C22 6.51033 21.8551 6.16059 21.5973 5.90273C21.3394 5.64487 20.9897 5.5 20.625 5.5H6.875C6.51033 5.5 6.16059 5.64487 5.90273 5.90273C5.64487 6.16059 5.5 6.51033 5.5 6.875V23.375C5.5 24.469 5.9346 25.5182 6.70818 26.2918C7.48177 27.0654 8.53098 27.5 9.625 27.5H24.75ZM11 11H16.5M11 16.5H16.5M11 22H16.5" stroke="#86C8BC" stroke-width="2" stroke-linecap="round" stroke-linejoin="round"/>
</svg>
