<svg width="158" height="198" viewBox="0 0 158 198" fill="none" xmlns="http://www.w3.org/2000/svg">
<g filter="url(#filter0_d_205_70)">
<rect x="4" y="4" width="150" height="190" rx="10" fill="white"/>
<rect x="4.5" y="4.5" width="149" height="189" rx="9.5" stroke="#A8A8A8"/>
</g>
<path d="M55.94 156.48C55.94 157.293 55.7533 158.04 55.38 158.72C55.0067 159.387 54.4333 159.927 53.66 160.34C52.8867 160.753 51.9267 160.96 50.78 160.96H48.66V166H45.24V151.96H50.78C51.9 151.96 52.8467 152.153 53.62 152.54C54.3933 152.927 54.9733 153.46 55.36 154.14C55.7467 154.82 55.94 155.6 55.94 156.48ZM50.52 158.24C51.1733 158.24 51.66 158.087 51.98 157.78C52.3 157.473 52.46 157.04 52.46 156.48C52.46 155.92 52.3 155.487 51.98 155.18C51.66 154.873 51.1733 154.72 50.52 154.72H48.66V158.24H50.52ZM61.1405 151.2V166H57.7205V151.2H61.1405ZM62.9389 160.4C62.9389 159.253 63.1522 158.247 63.5789 157.38C64.0189 156.513 64.6122 155.847 65.3589 155.38C66.1056 154.913 66.9389 154.68 67.8589 154.68C68.6456 154.68 69.3322 154.84 69.9189 155.16C70.5189 155.48 70.9789 155.9 71.2989 156.42V154.84H74.7189V166H71.2989V164.42C70.9656 164.94 70.4989 165.36 69.8989 165.68C69.3122 166 68.6256 166.16 67.8389 166.16C66.9322 166.16 66.1056 165.927 65.3589 165.46C64.6122 164.98 64.0189 164.307 63.5789 163.44C63.1522 162.56 62.9389 161.547 62.9389 160.4ZM71.2989 160.42C71.2989 159.567 71.0589 158.893 70.5789 158.4C70.1122 157.907 69.5389 157.66 68.8589 157.66C68.1789 157.66 67.5989 157.907 67.1189 158.4C66.6522 158.88 66.4189 159.547 66.4189 160.4C66.4189 161.253 66.6522 161.933 67.1189 162.44C67.5989 162.933 68.1789 163.18 68.8589 163.18C69.5389 163.18 70.1122 162.933 70.5789 162.44C71.0589 161.947 71.2989 161.273 71.2989 160.42ZM81.7331 166.16C80.7598 166.16 79.8931 165.993 79.1331 165.66C78.3731 165.327 77.7731 164.873 77.3331 164.3C76.8931 163.713 76.6465 163.06 76.5931 162.34H79.9731C80.0131 162.727 80.1931 163.04 80.5131 163.28C80.8331 163.52 81.2265 163.64 81.6931 163.64C82.1198 163.64 82.4465 163.56 82.6731 163.4C82.9131 163.227 83.0331 163.007 83.0331 162.74C83.0331 162.42 82.8665 162.187 82.5331 162.04C82.1998 161.88 81.6598 161.707 80.9131 161.52C80.1131 161.333 79.4465 161.14 78.9131 160.94C78.3798 160.727 77.9198 160.4 77.5331 159.96C77.1465 159.507 76.9531 158.9 76.9531 158.14C76.9531 157.5 77.1265 156.92 77.4731 156.4C77.8331 155.867 78.3531 155.447 79.0331 155.14C79.7265 154.833 80.5465 154.68 81.4931 154.68C82.8931 154.68 83.9931 155.027 84.7931 155.72C85.6065 156.413 86.0731 157.333 86.1931 158.48H83.0331C82.9798 158.093 82.8065 157.787 82.5131 157.56C82.2331 157.333 81.8598 157.22 81.3931 157.22C80.9931 157.22 80.6865 157.3 80.4731 157.46C80.2598 157.607 80.1531 157.813 80.1531 158.08C80.1531 158.4 80.3198 158.64 80.6531 158.8C80.9998 158.96 81.5331 159.12 82.2531 159.28C83.0798 159.493 83.7531 159.707 84.2731 159.92C84.7931 160.12 85.2465 160.453 85.6331 160.92C86.0331 161.373 86.2398 161.987 86.2531 162.76C86.2531 163.413 86.0665 164 85.6931 164.52C85.3331 165.027 84.8065 165.427 84.1131 165.72C83.4331 166.013 82.6398 166.16 81.7331 166.16ZM94.5655 163.1V166H92.8255C91.5855 166 90.6188 165.7 89.9255 165.1C89.2321 164.487 88.8855 163.493 88.8855 162.12V157.68H87.5255V154.84H88.8855V152.12H92.3055V154.84H94.5455V157.68H92.3055V162.16C92.3055 162.493 92.3855 162.733 92.5455 162.88C92.7055 163.027 92.9721 163.1 93.3455 163.1H94.5655ZM98.1905 153.68C97.5905 153.68 97.0971 153.507 96.7105 153.16C96.3371 152.8 96.1505 152.36 96.1505 151.84C96.1505 151.307 96.3371 150.867 96.7105 150.52C97.0971 150.16 97.5905 149.98 98.1905 149.98C98.7771 149.98 99.2571 150.16 99.6305 150.52C100.017 150.867 100.21 151.307 100.21 151.84C100.21 152.36 100.017 152.8 99.6305 153.16C99.2571 153.507 98.7771 153.68 98.1905 153.68ZM99.8905 154.84V166H96.4705V154.84H99.8905ZM109.189 166L105.789 161.32V166H102.369V151.2H105.789V159.38L109.169 154.84H113.389L108.749 160.44L113.429 166H109.189Z" fill="#252525"/>
<path d="M73.1666 49.4583H84.8333M62.9583 77.1666H64.4166L67.4121 77.6654C75.0844 78.9441 82.9155 78.9441 90.5879 77.6654L93.5833 77.1666H95.0416M62.9583 97.5833H64.4166L67.4121 97.0846C75.0844 95.8059 82.9155 95.8059 90.5879 97.0846L93.5833 97.5833H95.0416M83.375 58.2083H74.625C71.1193 59.9611 68.171 62.6555 66.1104 65.9895C64.0498 69.3236 62.9584 73.1656 62.9583 77.085V110.708C62.9583 112.255 63.5729 113.739 64.6669 114.833C65.7608 115.927 67.2445 116.542 68.7916 116.542H89.2083C90.7554 116.542 92.2391 115.927 93.3331 114.833C94.4271 113.739 95.0416 112.255 95.0416 110.708V77.085C95.0416 73.1656 93.9501 69.3236 91.8895 65.9895C89.8289 62.6555 86.8806 59.9611 83.375 58.2083Z" stroke="#86C8BC" stroke-width="5"/>
<defs>
<filter id="filter0_d_205_70" x="0" y="0" width="158" height="198" filterUnits="userSpaceOnUse" color-interpolation-filters="sRGB">
<feFlood flood-opacity="0" result="BackgroundImageFix"/>
<feColorMatrix in="SourceAlpha" type="matrix" values="0 0 0 0 0 0 0 0 0 0 0 0 0 0 0 0 0 0 127 0" result="hardAlpha"/>
<feOffset/>
<feGaussianBlur stdDeviation="2"/>
<feComposite in2="hardAlpha" operator="out"/>
<feColorMatrix type="matrix" values="0 0 0 0 0 0 0 0 0 0 0 0 0 0 0 0 0 0 0.25 0"/>
<feBlend mode="normal" in2="BackgroundImageFix" result="effect1_dropShadow_205_70"/>
<feBlend mode="normal" in="SourceGraphic" in2="effect1_dropShadow_205_70" result="shape"/>
</filter>
</defs>
</svg>
