<svg width="75" height="22" viewBox="0 0 75 22" fill="none" xmlns="http://www.w3.org/2000/svg">
<path d="M33.059 10.591C33.059 11.345 32.799 11.9733 32.279 12.476C31.7677 12.97 30.9833 13.217 29.926 13.217H28.184V17H27.001V7.939H29.926C30.9487 7.939 31.7243 8.186 32.253 8.68C32.7903 9.174 33.059 9.811 33.059 10.591ZM29.926 12.242C30.5847 12.242 31.07 12.099 31.382 11.813C31.694 11.527 31.85 11.1197 31.85 10.591C31.85 9.473 31.2087 8.914 29.926 8.914H28.184V12.242H29.926ZM37.6363 17.117C36.969 17.117 36.3623 16.9653 35.8163 16.662C35.279 16.3587 34.8543 15.9297 34.5423 15.375C34.239 14.8117 34.0873 14.1617 34.0873 13.425C34.0873 12.697 34.2433 12.0557 34.5553 11.501C34.876 10.9377 35.3093 10.5087 35.8553 10.214C36.4013 9.91067 37.0123 9.759 37.6883 9.759C38.3643 9.759 38.9753 9.91067 39.5213 10.214C40.0673 10.5087 40.4963 10.9333 40.8083 11.488C41.129 12.0427 41.2893 12.6883 41.2893 13.425C41.2893 14.1617 41.1247 14.8117 40.7953 15.375C40.4747 15.9297 40.037 16.3587 39.4823 16.662C38.9277 16.9653 38.3123 17.117 37.6363 17.117ZM37.6363 16.077C38.061 16.077 38.4597 15.9773 38.8323 15.778C39.205 15.5787 39.504 15.2797 39.7293 14.881C39.9633 14.4823 40.0803 13.997 40.0803 13.425C40.0803 12.853 39.9677 12.3677 39.7423 11.969C39.517 11.5703 39.2223 11.2757 38.8583 11.085C38.4943 10.8857 38.1 10.786 37.6753 10.786C37.242 10.786 36.8433 10.8857 36.4793 11.085C36.124 11.2757 35.838 11.5703 35.6213 11.969C35.4047 12.3677 35.2963 12.853 35.2963 13.425C35.2963 14.0057 35.4003 14.4953 35.6083 14.894C35.825 15.2927 36.111 15.5917 36.4663 15.791C36.8217 15.9817 37.2117 16.077 37.6363 16.077ZM43.4558 8.719C43.2304 8.719 43.0398 8.641 42.8838 8.485C42.7278 8.329 42.6498 8.13833 42.6498 7.913C42.6498 7.68767 42.7278 7.497 42.8838 7.341C43.0398 7.185 43.2304 7.107 43.4558 7.107C43.6724 7.107 43.8544 7.185 44.0018 7.341C44.1578 7.497 44.2358 7.68767 44.2358 7.913C44.2358 8.13833 44.1578 8.329 44.0018 8.485C43.8544 8.641 43.6724 8.719 43.4558 8.719ZM44.0278 9.876V17H42.8448V9.876H44.0278ZM49.515 9.746C50.3816 9.746 51.0836 10.0103 51.621 10.539C52.1583 11.059 52.427 11.813 52.427 12.801V17H51.257V12.97C51.257 12.2593 51.0793 11.7177 50.724 11.345C50.3686 10.9637 49.8833 10.773 49.268 10.773C48.644 10.773 48.1456 10.968 47.773 11.358C47.409 11.748 47.227 12.3157 47.227 13.061V17H46.044V9.876H47.227V10.89C47.461 10.526 47.7773 10.2443 48.176 10.045C48.5833 9.84567 49.0296 9.746 49.515 9.746ZM55.8024 10.851V15.05C55.8024 15.3967 55.8761 15.6437 56.0234 15.791C56.1707 15.9297 56.4264 15.999 56.7904 15.999H57.6614V17H56.5954C55.9367 17 55.4427 16.8483 55.1134 16.545C54.7841 16.2417 54.6194 15.7433 54.6194 15.05V10.851H53.6964V9.876H54.6194V8.082H55.8024V9.876H57.6614V10.851H55.8024ZM61.6168 17.117C61.0708 17.117 60.5811 17.026 60.1478 16.844C59.7144 16.6533 59.3721 16.3933 59.1208 16.064C58.8694 15.726 58.7308 15.3403 58.7048 14.907H59.9268C59.9614 15.2623 60.1261 15.5527 60.4208 15.778C60.7241 16.0033 61.1184 16.116 61.6038 16.116C62.0544 16.116 62.4098 16.0163 62.6698 15.817C62.9298 15.6177 63.0598 15.3663 63.0598 15.063C63.0598 14.751 62.9211 14.5213 62.6438 14.374C62.3664 14.218 61.9374 14.0663 61.3568 13.919C60.8281 13.7803 60.3948 13.6417 60.0568 13.503C59.7274 13.3557 59.4414 13.1433 59.1988 12.866C58.9648 12.58 58.8478 12.2073 58.8478 11.748C58.8478 11.384 58.9561 11.0503 59.1728 10.747C59.3894 10.4437 59.6971 10.2053 60.0958 10.032C60.4944 9.85 60.9494 9.759 61.4608 9.759C62.2494 9.759 62.8864 9.95833 63.3718 10.357C63.8571 10.7557 64.1171 11.3017 64.1518 11.995H62.9688C62.9428 11.6223 62.7911 11.3233 62.5138 11.098C62.2451 10.8727 61.8811 10.76 61.4218 10.76C60.9971 10.76 60.6591 10.851 60.4078 11.033C60.1564 11.215 60.0308 11.4533 60.0308 11.748C60.0308 11.982 60.1044 12.177 60.2518 12.333C60.4078 12.4803 60.5984 12.6017 60.8238 12.697C61.0578 12.7837 61.3784 12.8833 61.7858 12.996C62.2971 13.1347 62.7131 13.2733 63.0338 13.412C63.3544 13.542 63.6274 13.7413 63.8528 14.01C64.0868 14.2787 64.2081 14.6297 64.2168 15.063C64.2168 15.453 64.1084 15.804 63.8918 16.116C63.6751 16.428 63.3674 16.675 62.9688 16.857C62.5788 17.0303 62.1281 17.117 61.6168 17.117Z" fill="white"/>
<path d="M11.9167 3.66667V1.83333C16.1883 2.29167 19.5525 5.67417 20.0292 9.94583C20.5792 14.9783 16.9583 19.5067 11.9167 20.0567V18.2233C15.2533 17.8108 17.875 15.18 18.2967 11.8433C18.4154 10.8874 18.3445 9.91746 18.088 8.98896C17.8316 8.06046 17.3945 7.19164 16.802 6.4322C16.2094 5.67275 15.4729 5.0376 14.6347 4.56306C13.7964 4.08852 12.8728 3.78391 11.9167 3.66667ZM5.1975 3.85C6.58693 2.70287 8.28929 2.00021 10.0833 1.83333V3.72167C8.7725 3.905 7.535 4.43667 6.50833 5.26167L5.1975 3.85ZM1.87917 10.0833C2.04939 8.28846 2.75521 6.5862 3.905 5.1975L5.21583 6.50833C4.40365 7.54389 3.88446 8.77855 3.7125 10.0833H1.87917ZM3.91417 16.8025C2.77537 15.4072 2.071 13.7084 1.88833 11.9167H3.72167C3.88667 13.2183 4.40917 14.4558 5.21583 15.4917L3.91417 16.8025ZM5.1975 18.095L6.47167 16.8392H6.50833C7.54417 17.6458 8.78167 18.1683 10.0833 18.3333V20.1667C8.28667 19.9742 6.58167 19.25 5.1975 18.095ZM11 15.5833L12.43 12.4483L15.5833 11L12.43 9.57L11 6.41667L9.56083 9.57L6.41667 11L9.56083 12.4483L11 15.5833Z" fill="white"/>
</svg>
