<svg width="65" height="84" viewBox="0 0 65 84" fill="none" xmlns="http://www.w3.org/2000/svg">
<circle cx="32.5" cy="32.5" r="31" fill="#86C8BC" stroke="white" stroke-width="3"/>
<path d="M38 16H49V25.1667H45.3333V19.6667H38V16ZM27 16V19.6667H19.6667V25.1667H16V16H27ZM38 49V45.3333H45.3333V39.8333H49V49H38ZM27 49H16V39.8333H19.6667V45.3333H27V49ZM16 30.6667H49V34.3333H16V30.6667Z" fill="white"/>
<path d="M31.632 82.584L29.964 80.916C29.556 81.028 29.14 81.084 28.716 81.084C27.94 81.084 27.232 80.904 26.592 80.544C25.952 80.176 25.444 79.668 25.068 79.02C24.7 78.364 24.516 77.628 24.516 76.812C24.516 75.996 24.7 75.264 25.068 74.616C25.444 73.96 25.952 73.452 26.592 73.092C27.232 72.724 27.94 72.54 28.716 72.54C29.5 72.54 30.212 72.724 30.852 73.092C31.492 73.452 31.996 73.956 32.364 74.604C32.732 75.252 32.916 75.988 32.916 76.812C32.916 77.612 32.74 78.332 32.388 78.972C32.036 79.612 31.552 80.116 30.936 80.484L33.048 82.584H31.632ZM25.632 76.812C25.632 77.476 25.764 78.06 26.028 78.564C26.3 79.068 26.668 79.456 27.132 79.728C27.604 80 28.132 80.136 28.716 80.136C29.3 80.136 29.824 80 30.288 79.728C30.76 79.456 31.128 79.068 31.392 78.564C31.664 78.06 31.8 77.476 31.8 76.812C31.8 76.14 31.664 75.556 31.392 75.06C31.128 74.556 30.764 74.168 30.3 73.896C29.836 73.624 29.308 73.488 28.716 73.488C28.124 73.488 27.596 73.624 27.132 73.896C26.668 74.168 26.3 74.556 26.028 75.06C25.764 75.556 25.632 76.14 25.632 76.812ZM38.785 81L36.793 77.58H35.473V81H34.381V72.636H37.081C37.713 72.636 38.245 72.744 38.677 72.96C39.117 73.176 39.445 73.468 39.661 73.836C39.877 74.204 39.985 74.624 39.985 75.096C39.985 75.672 39.817 76.18 39.481 76.62C39.153 77.06 38.657 77.352 37.993 77.496L40.093 81H38.785ZM35.473 76.704H37.081C37.673 76.704 38.117 76.56 38.413 76.272C38.709 75.976 38.857 75.584 38.857 75.096C38.857 74.6 38.709 74.216 38.413 73.944C38.125 73.672 37.681 73.536 37.081 73.536H35.473V76.704Z" fill="#A8A8A8"/>
</svg>
