<svg width="84" height="69" viewBox="0 0 84 69" fill="none" xmlns="http://www.w3.org/2000/svg">
<g filter="url(#filter0_d_33_323)">
<path d="M69.9949 4H14.0051C8.4823 4 4 8.47715 4 14V38C4 43.5228 8.47715 48 14 48H70C75.5229 48 80 43.5228 80 38V14C80 8.47715 75.5177 4 69.9949 4Z" fill="white"/>
</g>
<path d="M43 17C40.6131 17 38.3239 17.9482 36.636 19.636C34.9482 21.3239 34 23.6131 34 26H31L34.89 29.89L34.96 30.03L39 26H36C36 22.13 39.13 19 43 19C46.87 19 50 22.13 50 26C50 29.87 46.87 33 43 33C41.07 33 39.32 32.21 38.06 30.94L36.64 32.36C37.4734 33.198 38.4645 33.8627 39.5561 34.3158C40.6476 34.769 41.8181 35.0015 43 35C45.3869 35 47.6761 34.0518 49.364 32.364C51.0518 30.6761 52 28.3869 52 26C52 23.6131 51.0518 21.3239 49.364 19.636C47.6761 17.9482 45.3869 17 43 17ZM42 22V27L46.25 29.52L47.02 28.24L43.5 26.15V22H42Z" fill="#86C8BC"/>
<path d="M22.328 65L20.336 61.58H19.016V65H17.924V56.636H20.624C21.256 56.636 21.788 56.744 22.22 56.96C22.66 57.176 22.988 57.468 23.204 57.836C23.42 58.204 23.528 58.624 23.528 59.096C23.528 59.672 23.36 60.18 23.024 60.62C22.696 61.06 22.2 61.352 21.536 61.496L23.636 65H22.328ZM19.016 60.704H20.624C21.216 60.704 21.66 60.56 21.956 60.272C22.252 59.976 22.4 59.584 22.4 59.096C22.4 58.6 22.252 58.216 21.956 57.944C21.668 57.672 21.224 57.536 20.624 57.536H19.016V60.704ZM25.7888 57.356C25.5808 57.356 25.4048 57.284 25.2608 57.14C25.1168 56.996 25.0448 56.82 25.0448 56.612C25.0448 56.404 25.1168 56.228 25.2608 56.084C25.4048 55.94 25.5808 55.868 25.7888 55.868C25.9888 55.868 26.1568 55.94 26.2928 56.084C26.4368 56.228 26.5088 56.404 26.5088 56.612C26.5088 56.82 26.4368 56.996 26.2928 57.14C26.1568 57.284 25.9888 57.356 25.7888 57.356ZM26.3168 58.424V65H25.2248V58.424H26.3168ZM36.9379 58.424L34.8859 65H33.7579L32.1739 59.78L30.5899 65H29.4619L27.3979 58.424H28.5139L30.0259 63.944L31.6579 58.424H32.7739L34.3699 63.956L35.8579 58.424H36.9379ZM37.6137 61.688C37.6137 61.016 37.7497 60.428 38.0217 59.924C38.2937 59.412 38.6657 59.016 39.1377 58.736C39.6177 58.456 40.1497 58.316 40.7337 58.316C41.3097 58.316 41.8097 58.44 42.2337 58.688C42.6577 58.936 42.9737 59.248 43.1817 59.624V58.424H44.2857V65H43.1817V63.776C42.9657 64.16 42.6417 64.48 42.2097 64.736C41.7857 64.984 41.2897 65.108 40.7217 65.108C40.1377 65.108 39.6097 64.964 39.1377 64.676C38.6657 64.388 38.2937 63.984 38.0217 63.464C37.7497 62.944 37.6137 62.352 37.6137 61.688ZM43.1817 61.7C43.1817 61.204 43.0817 60.772 42.8817 60.404C42.6817 60.036 42.4097 59.756 42.0657 59.564C41.7297 59.364 41.3577 59.264 40.9497 59.264C40.5417 59.264 40.1697 59.36 39.8337 59.552C39.4977 59.744 39.2297 60.024 39.0297 60.392C38.8297 60.76 38.7297 61.192 38.7297 61.688C38.7297 62.192 38.8297 62.632 39.0297 63.008C39.2297 63.376 39.4977 63.66 39.8337 63.86C40.1697 64.052 40.5417 64.148 40.9497 64.148C41.3577 64.148 41.7297 64.052 42.0657 63.86C42.4097 63.66 42.6817 63.376 42.8817 63.008C43.0817 62.632 43.1817 62.196 43.1817 61.7ZM51.795 58.424L47.835 68.096H46.707L48.003 64.928L45.351 58.424H46.563L48.627 63.752L50.667 58.424H51.795ZM52.4848 61.688C52.4848 61.016 52.6208 60.428 52.8928 59.924C53.1648 59.412 53.5368 59.016 54.0088 58.736C54.4888 58.456 55.0208 58.316 55.6048 58.316C56.1808 58.316 56.6808 58.44 57.1048 58.688C57.5288 58.936 57.8448 59.248 58.0528 59.624V58.424H59.1568V65H58.0528V63.776C57.8368 64.16 57.5128 64.48 57.0808 64.736C56.6568 64.984 56.1608 65.108 55.5928 65.108C55.0088 65.108 54.4808 64.964 54.0088 64.676C53.5368 64.388 53.1648 63.984 52.8928 63.464C52.6208 62.944 52.4848 62.352 52.4848 61.688ZM58.0528 61.7C58.0528 61.204 57.9528 60.772 57.7528 60.404C57.5528 60.036 57.2808 59.756 56.9368 59.564C56.6008 59.364 56.2288 59.264 55.8208 59.264C55.4128 59.264 55.0408 59.36 54.7048 59.552C54.3688 59.744 54.1008 60.024 53.9008 60.392C53.7008 60.76 53.6008 61.192 53.6008 61.688C53.6008 62.192 53.7008 62.632 53.9008 63.008C54.1008 63.376 54.3688 63.66 54.7048 63.86C55.0408 64.052 55.4128 64.148 55.8208 64.148C56.2288 64.148 56.6008 64.052 56.9368 63.86C57.2808 63.66 57.5528 63.376 57.7528 63.008C57.9528 62.632 58.0528 62.196 58.0528 61.7ZM62.3341 59.324V63.2C62.3341 63.52 62.4021 63.748 62.5381 63.884C62.6741 64.012 62.9101 64.076 63.2461 64.076H64.0501V65H63.0661C62.4581 65 62.0021 64.86 61.6981 64.58C61.3941 64.3 61.2421 63.84 61.2421 63.2V59.324H60.3901V58.424H61.2421V56.768H62.3341V58.424H64.0501V59.324H62.3341Z" fill="white"/>
<defs>
<filter id="filter0_d_33_323" x="0" y="0" width="84" height="52" filterUnits="userSpaceOnUse" color-interpolation-filters="sRGB">
<feFlood flood-opacity="0" result="BackgroundImageFix"/>
<feColorMatrix in="SourceAlpha" type="matrix" values="0 0 0 0 0 0 0 0 0 0 0 0 0 0 0 0 0 0 127 0" result="hardAlpha"/>
<feOffset/>
<feGaussianBlur stdDeviation="2"/>
<feComposite in2="hardAlpha" operator="out"/>
<feColorMatrix type="matrix" values="0 0 0 0 0 0 0 0 0 0 0 0 0 0 0 0 0 0 0.25 0"/>
<feBlend mode="normal" in2="BackgroundImageFix" result="effect1_dropShadow_33_323"/>
<feBlend mode="normal" in="SourceGraphic" in2="effect1_dropShadow_33_323" result="shape"/>
</filter>
</defs>
</svg>
