<svg width="332" height="83" viewBox="0 0 332 83" fill="none" xmlns="http://www.w3.org/2000/svg">
<g filter="url(#filter0_d_33_65)">
<rect x="4" y="4" width="324" height="75" rx="10" fill="white"/>
<rect x="4.5" y="4.5" width="323" height="74" rx="9.5" stroke="#A8A8A8" stroke-dasharray="8 8"/>
</g>
<path d="M101.072 38.768V40.96H98.096V50H95.36V40.96H92.384V38.768H101.072ZM101.901 45.52C101.901 44.6027 102.072 43.7973 102.413 43.104C102.765 42.4107 103.24 41.8773 103.837 41.504C104.434 41.1307 105.101 40.944 105.837 40.944C106.466 40.944 107.016 41.072 107.485 41.328C107.965 41.584 108.333 41.92 108.589 42.336V41.072H111.325V50H108.589V48.736C108.322 49.152 107.949 49.488 107.469 49.744C107 50 106.45 50.128 105.821 50.128C105.096 50.128 104.434 49.9413 103.837 49.568C103.24 49.184 102.765 48.6453 102.413 47.952C102.072 47.248 101.901 46.4373 101.901 45.52ZM108.589 45.536C108.589 44.8533 108.397 44.3147 108.013 43.92C107.64 43.5253 107.181 43.328 106.637 43.328C106.093 43.328 105.629 43.5253 105.245 43.92C104.872 44.304 104.685 44.8373 104.685 45.52C104.685 46.2027 104.872 46.7467 105.245 47.152C105.629 47.5467 106.093 47.744 106.637 47.744C107.181 47.744 107.64 47.5467 108.013 47.152C108.397 46.7573 108.589 46.2187 108.589 45.536ZM124.697 40.976C125.806 40.976 126.686 41.312 127.337 41.984C127.998 42.656 128.329 43.5893 128.329 44.784V50H125.609V45.152C125.609 44.576 125.454 44.1333 125.145 43.824C124.846 43.504 124.43 43.344 123.897 43.344C123.363 43.344 122.942 43.504 122.633 43.824C122.334 44.1333 122.185 44.576 122.185 45.152V50H119.465V45.152C119.465 44.576 119.31 44.1333 119.001 43.824C118.702 43.504 118.286 43.344 117.753 43.344C117.219 43.344 116.798 43.504 116.489 43.824C116.19 44.1333 116.041 44.576 116.041 45.152V50H113.305V41.072H116.041V42.192C116.318 41.8187 116.681 41.5253 117.129 41.312C117.577 41.088 118.083 40.976 118.649 40.976C119.321 40.976 119.918 41.12 120.441 41.408C120.974 41.696 121.39 42.1067 121.689 42.64C121.998 42.1493 122.419 41.7493 122.953 41.44C123.486 41.1307 124.067 40.976 124.697 40.976ZM132.978 42.336C133.234 41.92 133.602 41.584 134.082 41.328C134.562 41.072 135.111 40.944 135.73 40.944C136.466 40.944 137.133 41.1307 137.73 41.504C138.327 41.8773 138.797 42.4107 139.138 43.104C139.49 43.7973 139.666 44.6027 139.666 45.52C139.666 46.4373 139.49 47.248 139.138 47.952C138.797 48.6453 138.327 49.184 137.73 49.568C137.133 49.9413 136.466 50.128 135.73 50.128C135.101 50.128 134.551 50.0053 134.082 49.76C133.613 49.504 133.245 49.168 132.978 48.752V50H130.242V38.16H132.978V42.336ZM136.882 45.52C136.882 44.8373 136.69 44.304 136.306 43.92C135.933 43.5253 135.469 43.328 134.914 43.328C134.37 43.328 133.906 43.5253 133.522 43.92C133.149 44.3147 132.962 44.8533 132.962 45.536C132.962 46.2187 133.149 46.7573 133.522 47.152C133.906 47.5467 134.37 47.744 134.914 47.744C135.458 47.744 135.922 47.5467 136.306 47.152C136.69 46.7467 136.882 46.2027 136.882 45.52ZM140.557 45.52C140.557 44.6027 140.728 43.7973 141.069 43.104C141.421 42.4107 141.896 41.8773 142.493 41.504C143.091 41.1307 143.757 40.944 144.493 40.944C145.123 40.944 145.672 41.072 146.141 41.328C146.621 41.584 146.989 41.92 147.245 42.336V41.072H149.981V50H147.245V48.736C146.979 49.152 146.605 49.488 146.125 49.744C145.656 50 145.107 50.128 144.477 50.128C143.752 50.128 143.091 49.9413 142.493 49.568C141.896 49.184 141.421 48.6453 141.069 47.952C140.728 47.248 140.557 46.4373 140.557 45.52ZM147.245 45.536C147.245 44.8533 147.053 44.3147 146.669 43.92C146.296 43.5253 145.837 43.328 145.293 43.328C144.749 43.328 144.285 43.5253 143.901 43.92C143.528 44.304 143.341 44.8373 143.341 45.52C143.341 46.2027 143.528 46.7467 143.901 47.152C144.285 47.5467 144.749 47.744 145.293 47.744C145.837 47.744 146.296 47.5467 146.669 47.152C147.053 46.7573 147.245 46.2187 147.245 45.536ZM157.449 40.976C158.473 40.976 159.294 41.3173 159.913 42C160.531 42.672 160.841 43.6 160.841 44.784V50H158.121V45.152C158.121 44.5547 157.966 44.0907 157.657 43.76C157.347 43.4293 156.931 43.264 156.409 43.264C155.886 43.264 155.47 43.4293 155.161 43.76C154.851 44.0907 154.697 44.5547 154.697 45.152V50H151.961V38.16H154.697V42.272C154.974 41.8773 155.353 41.5627 155.833 41.328C156.313 41.0933 156.851 40.976 157.449 40.976ZM169.765 50.128C168.986 50.128 168.293 49.9947 167.685 49.728C167.077 49.4613 166.597 49.0987 166.245 48.64C165.893 48.1707 165.695 47.648 165.653 47.072H168.357C168.389 47.3813 168.533 47.632 168.789 47.824C169.045 48.016 169.359 48.112 169.733 48.112C170.074 48.112 170.335 48.048 170.517 47.92C170.709 47.7813 170.805 47.6053 170.805 47.392C170.805 47.136 170.671 46.9493 170.405 46.832C170.138 46.704 169.706 46.5653 169.109 46.416C168.469 46.2667 167.935 46.112 167.509 45.952C167.082 45.7813 166.714 45.52 166.405 45.168C166.095 44.8053 165.941 44.32 165.941 43.712C165.941 43.2 166.079 42.736 166.357 42.32C166.645 41.8933 167.061 41.5573 167.605 41.312C168.159 41.0667 168.815 40.944 169.573 40.944C170.693 40.944 171.573 41.2213 172.213 41.776C172.863 42.3307 173.237 43.0667 173.333 43.984H170.805C170.762 43.6747 170.623 43.4293 170.389 43.248C170.165 43.0667 169.866 42.976 169.493 42.976C169.173 42.976 168.927 43.04 168.757 43.168C168.586 43.2853 168.501 43.4507 168.501 43.664C168.501 43.92 168.634 44.112 168.901 44.24C169.178 44.368 169.605 44.496 170.181 44.624C170.842 44.7947 171.381 44.9653 171.797 45.136C172.213 45.296 172.575 45.5627 172.885 45.936C173.205 46.2987 173.37 46.7893 173.381 47.408C173.381 47.9307 173.231 48.4 172.933 48.816C172.645 49.2213 172.223 49.5413 171.669 49.776C171.125 50.0107 170.49 50.128 169.765 50.128ZM174.511 45.52C174.511 44.6027 174.681 43.7973 175.023 43.104C175.375 42.4107 175.849 41.8773 176.447 41.504C177.044 41.1307 177.711 40.944 178.447 40.944C179.076 40.944 179.625 41.072 180.095 41.328C180.575 41.584 180.943 41.92 181.199 42.336V41.072H183.935V50H181.199V48.736C180.932 49.152 180.559 49.488 180.079 49.744C179.609 50 179.06 50.128 178.431 50.128C177.705 50.128 177.044 49.9413 176.447 49.568C175.849 49.184 175.375 48.6453 175.023 47.952C174.681 47.248 174.511 46.4373 174.511 45.52ZM181.199 45.536C181.199 44.8533 181.007 44.3147 180.623 43.92C180.249 43.5253 179.791 43.328 179.247 43.328C178.703 43.328 178.239 43.5253 177.855 43.92C177.481 44.304 177.295 44.8373 177.295 45.52C177.295 46.2027 177.481 46.7467 177.855 47.152C178.239 47.5467 178.703 47.744 179.247 47.744C179.791 47.744 180.249 47.5467 180.623 47.152C181.007 46.7573 181.199 46.2187 181.199 45.536ZM197.306 40.976C198.415 40.976 199.295 41.312 199.946 41.984C200.607 42.656 200.938 43.5893 200.938 44.784V50H198.218V45.152C198.218 44.576 198.063 44.1333 197.754 43.824C197.455 43.504 197.039 43.344 196.506 43.344C195.973 43.344 195.551 43.504 195.242 43.824C194.943 44.1333 194.794 44.576 194.794 45.152V50H192.074V45.152C192.074 44.576 191.919 44.1333 191.61 43.824C191.311 43.504 190.895 43.344 190.362 43.344C189.829 43.344 189.407 43.504 189.098 43.824C188.799 44.1333 188.65 44.576 188.65 45.152V50H185.914V41.072H188.65V42.192C188.927 41.8187 189.29 41.5253 189.738 41.312C190.186 41.088 190.693 40.976 191.258 40.976C191.93 40.976 192.527 41.12 193.05 41.408C193.583 41.696 193.999 42.1067 194.298 42.64C194.607 42.1493 195.029 41.7493 195.562 41.44C196.095 41.1307 196.677 40.976 197.306 40.976ZM205.587 42.336C205.854 41.92 206.222 41.584 206.691 41.328C207.161 41.072 207.71 40.944 208.339 40.944C209.075 40.944 209.742 41.1307 210.339 41.504C210.937 41.8773 211.406 42.4107 211.747 43.104C212.099 43.7973 212.275 44.6027 212.275 45.52C212.275 46.4373 212.099 47.248 211.747 47.952C211.406 48.6453 210.937 49.184 210.339 49.568C209.742 49.9413 209.075 50.128 208.339 50.128C207.721 50.128 207.171 50 206.691 49.744C206.222 49.488 205.854 49.1573 205.587 48.752V54.256H202.851V41.072H205.587V42.336ZM209.491 45.52C209.491 44.8373 209.299 44.304 208.915 43.92C208.542 43.5253 208.078 43.328 207.523 43.328C206.979 43.328 206.515 43.5253 206.131 43.92C205.758 44.3147 205.571 44.8533 205.571 45.536C205.571 46.2187 205.758 46.7573 206.131 47.152C206.515 47.5467 206.979 47.744 207.523 47.744C208.067 47.744 208.531 47.5467 208.915 47.152C209.299 46.7467 209.491 46.2027 209.491 45.52ZM213.167 45.52C213.167 44.6027 213.337 43.7973 213.679 43.104C214.031 42.4107 214.505 41.8773 215.103 41.504C215.7 41.1307 216.367 40.944 217.103 40.944C217.732 40.944 218.281 41.072 218.751 41.328C219.231 41.584 219.599 41.92 219.855 42.336V41.072H222.591V50H219.855V48.736C219.588 49.152 219.215 49.488 218.735 49.744C218.265 50 217.716 50.128 217.087 50.128C216.361 50.128 215.7 49.9413 215.103 49.568C214.505 49.184 214.031 48.6453 213.679 47.952C213.337 47.248 213.167 46.4373 213.167 45.52ZM219.855 45.536C219.855 44.8533 219.663 44.3147 219.279 43.92C218.905 43.5253 218.447 43.328 217.903 43.328C217.359 43.328 216.895 43.5253 216.511 43.92C216.137 44.304 215.951 44.8373 215.951 45.52C215.951 46.2027 216.137 46.7467 216.511 47.152C216.895 47.5467 217.359 47.744 217.903 47.744C218.447 47.744 218.905 47.5467 219.279 47.152C219.663 46.7573 219.855 46.2187 219.855 45.536ZM230.058 40.976C231.082 40.976 231.903 41.3173 232.522 42C233.141 42.672 233.45 43.6 233.45 44.784V50H230.73V45.152C230.73 44.5547 230.575 44.0907 230.266 43.76C229.957 43.4293 229.541 43.264 229.018 43.264C228.495 43.264 228.079 43.4293 227.77 43.76C227.461 44.0907 227.306 44.5547 227.306 45.152V50H224.57V38.16H227.306V42.272C227.583 41.8773 227.962 41.5627 228.442 41.328C228.922 41.0933 229.461 40.976 230.058 40.976Z" fill="#A8A8A8"/>
<path d="M48.208 46.264H42.64V51.96H37.456V46.264H31.888V41.368H37.456V35.64H42.64V41.368H48.208V46.264Z" fill="#A8A8A8"/>
<defs>
<filter id="filter0_d_33_65" x="0" y="0" width="332" height="83" filterUnits="userSpaceOnUse" color-interpolation-filters="sRGB">
<feFlood flood-opacity="0" result="BackgroundImageFix"/>
<feColorMatrix in="SourceAlpha" type="matrix" values="0 0 0 0 0 0 0 0 0 0 0 0 0 0 0 0 0 0 127 0" result="hardAlpha"/>
<feOffset/>
<feGaussianBlur stdDeviation="2"/>
<feComposite in2="hardAlpha" operator="out"/>
<feColorMatrix type="matrix" values="0 0 0 0 0 0 0 0 0 0 0 0 0 0 0 0 0 0 0.25 0"/>
<feBlend mode="normal" in2="BackgroundImageFix" result="effect1_dropShadow_33_65"/>
<feBlend mode="normal" in="SourceGraphic" in2="effect1_dropShadow_33_65" result="shape"/>
</filter>
</defs>
</svg>
