<svg width="84" height="69" viewBox="0 0 84 69" fill="none" xmlns="http://www.w3.org/2000/svg">
<g filter="url(#filter0_d_33_325)">
<path d="M69.9949 4H14.0051C8.4823 4 4 8.47715 4 14V38C4 43.5228 8.47715 48 14 48H70C75.5229 48 80 43.5228 80 38V14C80 8.47715 75.5177 4 69.9949 4Z" fill="white"/>
</g>
<path d="M37 24H51L47 20M47 28H33L37 32" stroke="#86C8BC" stroke-width="2" stroke-linecap="round" stroke-linejoin="round"/>
<path d="M14.695 57.636V58.524H12.415V66H11.323V58.524H9.03105V57.636H14.695ZM21.8712 59.424V66H20.7792V65.028C20.5712 65.364 20.2792 65.628 19.9032 65.82C19.5352 66.004 19.1272 66.096 18.6792 66.096C18.1672 66.096 17.7072 65.992 17.2992 65.784C16.8912 65.568 16.5672 65.248 16.3272 64.824C16.0952 64.4 15.9792 63.884 15.9792 63.276V59.424H17.0592V63.132C17.0592 63.78 17.2232 64.28 17.5512 64.632C17.8792 64.976 18.3272 65.148 18.8952 65.148C19.4792 65.148 19.9392 64.968 20.2752 64.608C20.6112 64.248 20.7792 63.724 20.7792 63.036V59.424H21.8712ZM27.387 66L24.807 63.096V66H23.715V57.12H24.807V62.34L27.339 59.424H28.863L25.767 62.7L28.875 66H27.387ZM29.4828 62.688C29.4828 62.016 29.6188 61.428 29.8908 60.924C30.1628 60.412 30.5348 60.016 31.0068 59.736C31.4868 59.456 32.0188 59.316 32.6028 59.316C33.1788 59.316 33.6788 59.44 34.1028 59.688C34.5268 59.936 34.8428 60.248 35.0508 60.624V59.424H36.1548V66H35.0508V64.776C34.8348 65.16 34.5108 65.48 34.0788 65.736C33.6548 65.984 33.1588 66.108 32.5908 66.108C32.0068 66.108 31.4788 65.964 31.0068 65.676C30.5348 65.388 30.1628 64.984 29.8908 64.464C29.6188 63.944 29.4828 63.352 29.4828 62.688ZM35.0508 62.7C35.0508 62.204 34.9508 61.772 34.7508 61.404C34.5508 61.036 34.2788 60.756 33.9348 60.564C33.5988 60.364 33.2268 60.264 32.8188 60.264C32.4108 60.264 32.0388 60.36 31.7028 60.552C31.3668 60.744 31.0988 61.024 30.8988 61.392C30.6988 61.76 30.5988 62.192 30.5988 62.688C30.5988 63.192 30.6988 63.632 30.8988 64.008C31.0988 64.376 31.3668 64.66 31.7028 64.86C32.0388 65.052 32.4108 65.148 32.8188 65.148C33.2268 65.148 33.5988 65.052 33.9348 64.86C34.2788 64.66 34.5508 64.376 34.7508 64.008C34.9508 63.632 35.0508 63.196 35.0508 62.7ZM39.0922 60.492C39.2842 60.116 39.5562 59.824 39.9082 59.616C40.2682 59.408 40.7042 59.304 41.2162 59.304V60.432H40.9282C39.7042 60.432 39.0922 61.096 39.0922 62.424V66H38.0002V59.424H39.0922V60.492ZM51.268 60.084C51.268 60.78 51.028 61.36 50.548 61.824C50.076 62.28 49.352 62.508 48.376 62.508H46.768V66H45.676V57.636H48.376C49.32 57.636 50.036 57.864 50.524 58.32C51.02 58.776 51.268 59.364 51.268 60.084ZM48.376 61.608C48.984 61.608 49.432 61.476 49.72 61.212C50.008 60.948 50.152 60.572 50.152 60.084C50.152 59.052 49.56 58.536 48.376 58.536H46.768V61.608H48.376ZM55.4932 66.108C54.8772 66.108 54.3172 65.968 53.8132 65.688C53.3172 65.408 52.9252 65.012 52.6372 64.5C52.3572 63.98 52.2172 63.38 52.2172 62.7C52.2172 62.028 52.3612 61.436 52.6492 60.924C52.9452 60.404 53.3452 60.008 53.8492 59.736C54.3532 59.456 54.9172 59.316 55.5412 59.316C56.1652 59.316 56.7292 59.456 57.2332 59.736C57.7372 60.008 58.1332 60.4 58.4212 60.912C58.7172 61.424 58.8652 62.02 58.8652 62.7C58.8652 63.38 58.7132 63.98 58.4092 64.5C58.1132 65.012 57.7092 65.408 57.1972 65.688C56.6852 65.968 56.1172 66.108 55.4932 66.108ZM55.4932 65.148C55.8852 65.148 56.2532 65.056 56.5972 64.872C56.9412 64.688 57.2172 64.412 57.4252 64.044C57.6412 63.676 57.7492 63.228 57.7492 62.7C57.7492 62.172 57.6452 61.724 57.4372 61.356C57.2292 60.988 56.9572 60.716 56.6212 60.54C56.2852 60.356 55.9212 60.264 55.5292 60.264C55.1292 60.264 54.7612 60.356 54.4252 60.54C54.0972 60.716 53.8332 60.988 53.6332 61.356C53.4332 61.724 53.3332 62.172 53.3332 62.7C53.3332 63.236 53.4292 63.688 53.6212 64.056C53.8212 64.424 54.0852 64.7 54.4132 64.884C54.7412 65.06 55.1012 65.148 55.4932 65.148ZM60.865 58.356C60.657 58.356 60.481 58.284 60.337 58.14C60.193 57.996 60.121 57.82 60.121 57.612C60.121 57.404 60.193 57.228 60.337 57.084C60.481 56.94 60.657 56.868 60.865 56.868C61.065 56.868 61.233 56.94 61.369 57.084C61.513 57.228 61.585 57.404 61.585 57.612C61.585 57.82 61.513 57.996 61.369 58.14C61.233 58.284 61.065 58.356 60.865 58.356ZM61.393 59.424V66H60.301V59.424H61.393ZM66.4581 59.304C67.2581 59.304 67.9061 59.548 68.4021 60.036C68.8981 60.516 69.1461 61.212 69.1461 62.124V66H68.0661V62.28C68.0661 61.624 67.9021 61.124 67.5741 60.78C67.2461 60.428 66.7981 60.252 66.2301 60.252C65.6541 60.252 65.1941 60.432 64.8501 60.792C64.5141 61.152 64.3461 61.676 64.3461 62.364V66H63.2541V59.424H64.3461V60.36C64.5621 60.024 64.8541 59.764 65.2221 59.58C65.5981 59.396 66.0101 59.304 66.4581 59.304ZM72.2619 60.324V64.2C72.2619 64.52 72.3299 64.748 72.4659 64.884C72.6019 65.012 72.8379 65.076 73.1739 65.076H73.9779V66H72.9939C72.3859 66 71.9299 65.86 71.6259 65.58C71.3219 65.3 71.1699 64.84 71.1699 64.2V60.324H70.3179V59.424H71.1699V57.768H72.2619V59.424H73.9779V60.324H72.2619Z" fill="white"/>
<defs>
<filter id="filter0_d_33_325" x="0" y="0" width="84" height="52" filterUnits="userSpaceOnUse" color-interpolation-filters="sRGB">
<feFlood flood-opacity="0" result="BackgroundImageFix"/>
<feColorMatrix in="SourceAlpha" type="matrix" values="0 0 0 0 0 0 0 0 0 0 0 0 0 0 0 0 0 0 127 0" result="hardAlpha"/>
<feOffset/>
<feGaussianBlur stdDeviation="2"/>
<feComposite in2="hardAlpha" operator="out"/>
<feColorMatrix type="matrix" values="0 0 0 0 0 0 0 0 0 0 0 0 0 0 0 0 0 0 0.25 0"/>
<feBlend mode="normal" in2="BackgroundImageFix" result="effect1_dropShadow_33_325"/>
<feBlend mode="normal" in="SourceGraphic" in2="effect1_dropShadow_33_325" result="shape"/>
</filter>
</defs>
</svg>
