<svg width="68" height="68" viewBox="0 0 68 68" fill="none" xmlns="http://www.w3.org/2000/svg">
<path d="M16.1948 48.7746L16.5024 49.135L16.8788 48.8472C19.2444 47.0382 21.89 45.6099 24.8184 44.5632C27.7377 43.5215 30.7973 43 34.0001 43C37.2029 43 40.2625 43.5215 43.1818 44.5632C46.1102 45.6099 48.7558 47.0382 51.1214 48.8472L51.4977 49.135L51.8054 48.7746C53.497 46.793 54.8135 44.5465 55.755 42.0382L55.7551 42.0379C56.6973 39.5228 57.1668 36.8422 57.1668 34C57.1668 27.5877 54.9075 22.112 50.3989 17.6014L50.3987 17.6012C45.8881 13.0925 40.4123 10.8333 34.0001 10.8333C27.5878 10.8333 22.1129 13.0925 17.6042 17.6013C13.0936 22.1119 10.8334 27.5877 10.8334 34C10.8334 36.8424 11.3038 39.5231 12.248 42.0382C13.1876 44.5465 14.5032 46.793 16.1948 48.7746ZM23.1483 59.6416L23.1481 59.6415C19.7565 58.179 16.8113 56.1958 14.3078 53.6923C11.8043 51.1888 9.82111 48.2436 8.35854 44.852L8.35845 44.8518C6.89821 41.4699 6.16675 37.8543 6.16675 34C6.16675 30.1457 6.89821 26.5301 8.35845 23.1482L8.35854 23.148C9.82111 19.7564 11.8043 16.8112 14.3078 14.3077C16.8113 11.8043 19.7565 9.82008 23.1481 8.35563C26.53 6.89723 30.1457 6.16667 34.0001 6.16667C37.8544 6.16667 41.47 6.8972 44.8519 8.35554C48.2436 9.82 51.1889 11.8042 53.6924 14.3077C56.1958 16.8112 58.1791 19.7564 59.6416 23.148L59.6417 23.1482C61.102 26.5301 61.8334 30.1457 61.8334 34C61.8334 37.8543 61.102 41.4699 59.6417 44.8518L59.6416 44.852C58.1791 48.2436 56.1958 51.1888 53.6924 53.6923C51.1889 56.1958 48.2437 58.179 44.8521 59.6415L44.8519 59.6416C41.47 61.1019 37.8544 61.8333 34.0001 61.8333C30.1458 61.8333 26.5302 61.1019 23.1483 59.6416ZM41.2398 56.0451L41.2402 56.045C43.5095 55.2956 45.588 54.2199 47.4734 52.8179L48.013 52.4167L47.4734 52.0154C45.588 50.6135 43.5095 49.5377 41.2402 48.7884L41.2398 48.7883C38.9664 48.0395 36.5522 47.6667 34.0001 47.6667C31.4479 47.6667 29.0337 48.0395 26.7603 48.7883L26.76 48.7884C24.4907 49.5377 22.4121 50.6135 20.5267 52.0154L19.9871 52.4167L20.5267 52.8179C22.4121 54.2199 24.4907 55.2956 26.76 56.045L26.7603 56.0451C29.0337 56.7938 31.4479 57.1667 34.0001 57.1667C36.5522 57.1667 38.9664 56.7938 41.2398 56.0451ZM34.0001 36.3333C31.3421 36.3333 29.1209 35.4271 27.3043 33.6125C25.4896 31.7959 24.5834 29.5746 24.5834 26.9167C24.5834 24.2588 25.4896 22.0376 27.3041 20.2211C29.1207 18.4063 31.342 17.5 34.0001 17.5C36.658 17.5 38.8792 18.4062 40.6957 20.2207C42.5105 22.0373 43.4168 24.2586 43.4168 26.9167C43.4168 29.5747 42.5105 31.796 40.6957 33.6126C38.8792 35.4272 36.658 36.3333 34.0001 36.3333ZM34.0001 31.6667C35.3485 31.6667 36.4948 31.2207 37.3995 30.3161C38.3041 29.4114 38.7501 28.2651 38.7501 26.9167C38.7501 25.5682 38.3041 24.4219 37.3995 23.5173C36.4948 22.6126 35.3485 22.1667 34.0001 22.1667C32.6516 22.1667 31.5054 22.6126 30.6007 23.5173C29.696 24.4219 29.2501 25.5682 29.2501 26.9167C29.2501 28.2651 29.696 29.4114 30.6007 30.3161C31.5054 31.2207 32.6516 31.6667 34.0001 31.6667Z" fill="#A8A8A8" stroke="#A8A8A8"/>
</svg>
